<svg width="89" height="89" viewBox="0 0 89 89" fill="none" xmlns="http://www.w3.org/2000/svg">
<g clip-path="url(#clip0_1122_7899)">
<path fill-rule="evenodd" clip-rule="evenodd" d="M23.2783 55.0104H4.06805V57.4796H23.2783V55.0104ZM21.0409 59.5838H6.64449V61.6451H21.0409V59.5838ZM18.4418 63.7923H9.19832V65.918H18.4418V63.7923ZM43.935 64.4579V64.8444C43.935 75.6876 53.1785 84.7916 64.9985 84.7916C74.242 84.7916 81.5871 79.2089 84.5703 71.4791C85.6551 69.3534 86.062 66.8842 86.062 64.4364C86.062 53.5932 76.4342 44.4893 64.9985 44.4893C53.5627 44.4893 43.935 53.5932 43.935 64.4364V64.4579ZM62.3994 73.2398V73.9698H67.2359V73.2398H62.3994ZM62.3994 71.5006V72.5742H67.2359V71.5006H62.3994ZM64.2301 52.9491V56.084H65.3375V52.9491H64.2301ZM58.693 54.3448L60.5462 57.4796L61.292 57.1361L59.4614 53.9583L58.693 54.3448ZM54.6249 58.5317L57.9698 60.2709L58.3314 59.6053L55.0091 57.8232L54.6249 58.5532V58.5317ZM53.5401 64.1144H56.8624V63.0408H53.5401V64.1144ZM70.1739 53.9368L68.2981 57.1146L69.0665 57.4581L70.9197 54.3233L70.1739 53.9368ZM74.2194 57.8017L71.2814 59.5838L71.643 60.2495L74.9652 58.5103L74.2194 57.7802V57.8017ZM76.05 63.0622H72.3662V64.1358H76.05V63.0622ZM64.6143 60.2709C63.8685 60.2709 63.5295 61.6666 63.5295 63.4487C63.5295 65.2309 63.8911 66.5836 64.6143 66.5836C65.3375 66.5836 66.1059 65.1879 66.1059 63.4487C66.1059 61.7095 65.3375 60.2709 64.6143 60.2709ZM64.6143 66.9057C64.2301 66.9057 63.8685 67.2922 63.8685 67.9793C63.8685 68.3228 64.2301 69.0528 64.6143 69.0528C65.3601 69.0528 65.7217 68.3228 65.7217 67.9793C65.7217 67.3136 65.3375 66.9057 64.6143 66.9057ZM64.6143 57.4581C60.9304 57.4581 57.6082 60.2495 57.6082 64.1144C57.6082 66.5621 58.693 68.3013 60.5462 69.697C60.9304 70.0835 61.292 70.427 62.0378 70.427H61.6536V75.344H63.1452C63.1452 75.6876 63.8459 76.3532 64.5917 76.3532C65.3375 76.3532 66.0833 75.6876 66.4449 75.344H67.9139V70.427H67.5523C67.9139 70.427 68.2529 70.0835 69.0213 69.697C70.8745 68.3013 71.9594 66.5621 71.9594 64.1144C71.9594 60.2495 68.6597 57.4581 64.5691 57.4581H64.6143ZM19.2103 49.0842V50.8234H27.3238V70.1049H0V50.8234H8.11351V49.0842C8.11351 48.3542 8.85932 47.6885 9.96673 47.6885V46.2929C11.0741 38.9066 17.7412 23.1464 26.2164 18.9595V17.4994C22.9167 16.1037 20.6793 12.9689 20.6793 9.44753C20.6793 4.18697 25.0863 0 30.646 0C35.7989 0 40.2285 4.18697 40.2285 9.44753C40.2285 12.9689 38.0137 16.1037 34.6915 17.4994V18.9595C35.7763 19.303 36.9063 20.0116 37.6295 21.0207C38.7595 21.7508 39.8443 22.4164 40.9518 23.1464C43.1892 24.8856 45.3588 26.6034 47.2572 28.7291C51.6643 32.916 54.9865 35.7718 60.1394 35.0417C62.761 35.0417 64.5917 36.7809 64.9533 38.9066C64.9533 39.9587 64.5691 40.9679 64.1849 41.6979H64.9533C78.2422 41.6979 88.9548 51.8755 88.9548 64.4579C88.9548 77.0403 78.2422 87.2608 64.9533 87.2608C51.6643 87.2608 40.9518 77.0832 40.9518 64.4579C40.9518 55.0104 46.873 46.615 55.7323 43.0936C49.0879 42.02 44.6582 37.833 40.9518 34.3117V33.9682C40.5901 34.6982 40.5901 35.7503 40.5901 35.7503C40.5901 51.854 39.8217 68.2799 39.8217 84.7701C39.8217 87.2393 37.9911 88.9571 35.4147 88.9571C33.1772 88.9571 31.0076 87.2178 31.0076 84.7701V54.9674H30.2392V84.7701C30.2392 87.2393 28.4086 88.9571 25.8321 88.9571C23.5947 88.9571 21.3799 87.2178 21.3799 84.7701V71.4577H28.7702V49.7069H20.9957C20.6341 48.6333 20.6341 47.9677 20.6341 46.9156V34.6767C19.1651 37.468 18.3966 41.3329 17.3118 47.2591V47.6456C18.3966 47.6456 19.1651 48.3112 19.1651 49.0413L19.2103 49.0842Z" fill="white"/>
</g>
<defs>
<clipPath id="clip0_1122_7899">
<rect width="89" height="89" fill="white"/>
</clipPath>
</defs>
</svg>
