<svg width="107" height="95" viewBox="0 0 107 95" fill="none" xmlns="http://www.w3.org/2000/svg">
<g clip-path="url(#clip0_1122_7904)">
<path fill-rule="evenodd" clip-rule="evenodd" d="M90.6714 31.7077C91.8838 32.5424 93.6379 33.4579 95.3146 33.4579C96.9913 33.4579 98.668 34.2926 99.0808 36.0428L106.665 56.7223C107.542 58.9033 106.665 61.1382 104.575 61.9729C102.021 62.8076 99.932 61.5421 99.055 59.3072L95.2888 49.6945V61.5421L96.9655 90.0841C96.9655 92.2651 95.2888 94.5 93.1478 94.5H92.7351C90.6456 94.5 88.9689 92.7498 88.9689 90.5149L87.2148 66.3889L86.0024 90.5149C86.0024 92.7498 84.3257 94.5 81.7719 94.5C79.2182 94.5 77.5415 92.2651 77.5415 90.0841L79.2182 61.5421V41.7781H78.8055L54.3513 36.5275C52.2618 36.0428 50.9978 33.431 51.3848 31.1961C51.7975 29.4459 52.6745 28.6111 54.3513 28.0995H50.5335L44.2136 33.8349V38.2508H38.358V33.8349C36.217 32.0846 34.1275 30.3344 31.9865 28.5842H27.3433C24.3768 31.1691 19.3467 35.1812 16.406 38.2508V42.5859H10.0861V35.989H15.5805L26.9306 26.8071V22.3911H33.2505V26.8071C34.9272 28.5573 36.6039 30.3075 38.7449 31.6538H43.7751C45.4518 29.9036 48.0055 28.0726 49.2695 26.3224V21.4757H55.5894V27.6418L56.0022 28.0726L80.0436 33.404C82.1331 33.404 83.8098 32.4885 85.0738 32.0846C82.1073 30.7653 80.0436 28.0995 80.0436 24.5722C80.0436 20.6409 83.3971 17.1405 87.1632 17.1405C91.3937 17.1405 94.7471 20.6409 94.7471 24.5722C94.7471 27.6418 93.0704 30.3075 90.594 31.6538L90.6714 31.7077ZM64.0762 6.18147H37.1456C37.5583 5.75064 37.5583 5.26597 37.5583 4.43125C37.5583 2.25021 35.8816 0.5 33.7922 0.5C31.7027 0.5 29.9744 2.25021 29.9744 4.43125C29.9744 5.26597 29.9744 5.77757 30.3872 6.18147H3.43081C1.7541 6.18147 0 8.3625 0 10.1127V51.9025C0 53.6527 1.7541 55.4029 3.43081 55.4029H25.3312L21.1008 91.8612C21.1008 92.7767 21.5135 94.0961 22.7775 94.0961L24.4542 94.5269C25.3312 94.5269 26.5952 94.0961 26.5952 92.7767L31.2384 55.4029H36.2686L40.9118 92.7767C41.3245 94.0961 42.2015 94.5269 43.4655 94.5269L45.1422 94.0961C45.9419 94.0961 46.819 92.7767 46.4062 91.8612L42.1758 55.4029H64.0762C65.7529 55.4029 67.8939 53.6527 67.8939 51.9025V40.8896L60.697 39.1394V48.402H6.78423V13.1823H60.7228V27.6956L67.9197 29.4459V10.1127C67.9197 8.3625 65.7787 6.18147 64.102 6.18147H64.0762Z" fill="white"/>
</g>
<defs>
<clipPath id="clip0_1122_7904">
<rect width="107" height="94" fill="white" transform="translate(0 0.5)"/>
</clipPath>
</defs>
</svg>
