<svg width="89" height="97" viewBox="0 0 89 97" fill="none" xmlns="http://www.w3.org/2000/svg">
<g clip-path="url(#clip0_1122_7915)">
<path fill-rule="evenodd" clip-rule="evenodd" d="M9.10426 9.19686C9.10426 14.1346 13.068 17.9725 18.1919 17.9725C23.3157 17.9725 27.2553 14.1346 27.2553 9.19686C27.2553 4.25911 23.3399 0.374427 18.1919 0.374427C13.0438 0.374427 9.10426 4.2123 9.10426 9.22027V9.19686ZM4.39127 87.0777H32.0166V97H4.39127V87.0777ZM36.778 11.0924C36.778 10.718 37.5756 10.2967 37.9381 9.92232H38.7599C39.5574 9.54789 40.3067 9.54789 41.1284 9.92232C42.6994 10.718 43.497 12.9645 42.6994 14.4856C42.3127 14.9069 41.9018 16.428 40.3067 18.3235L39.5574 19.4702C38.3731 21.3657 37.5756 22.5124 36.778 23.6825V44.6504C36.778 45.8205 37.5756 46.2417 38.349 46.2417H83.3762C84.1738 46.2417 84.9472 45.8205 84.9472 44.6504V4.98456C84.9472 4.1889 84.1496 3.46345 83.3762 3.46345H38.349C37.5514 3.46345 36.778 4.1889 36.778 4.98456V11.069V11.0924ZM73.0801 25.578C69.1405 25.578 65.5876 28.9947 65.5876 33.2538C65.5876 37.5129 69.1405 40.5083 73.0801 40.5083C77.4547 40.5083 80.9834 37.3959 80.9834 33.2538C80.9834 29.1117 77.4547 25.578 73.0801 25.578ZM73.0801 24.0569C68.3671 24.0569 64.0167 28.2692 64.0167 33.2538C64.0167 38.2384 68.3671 42.0294 73.0801 42.0294C78.2523 42.0294 82.5786 38.1916 82.5786 33.2538C82.5786 28.316 78.2281 24.0569 73.0801 24.0569ZM66.7719 18.6979C66.3611 18.6979 65.9502 19.0724 65.9502 19.4936C65.9502 19.868 66.3611 20.2191 66.7719 20.2191H69.1405C69.9381 20.2191 69.9381 19.8446 69.9381 19.4936C69.9381 19.0724 69.9381 18.6979 69.1405 18.6979H66.7719ZM59.2553 18.6979C58.8686 18.6979 58.8686 19.0724 58.8686 19.4936C58.8686 19.868 58.8686 20.2191 59.2553 20.2191H62.0348C62.4457 20.2191 62.8324 19.8446 62.8324 19.4936C62.8324 19.0724 62.4457 18.6979 62.0348 18.6979H59.2553ZM52.1496 18.6979C51.7629 18.6979 51.352 19.0724 51.352 19.4936C51.352 19.868 51.7629 20.2191 52.1496 20.2191H54.5182C54.929 20.2191 55.3399 19.8446 55.3399 19.4936C55.3399 19.0724 54.929 18.6979 54.5182 18.6979H52.1496ZM66.7719 23.7059C66.3611 23.7059 65.9502 24.0803 65.9502 24.4314C65.9502 25.227 66.3611 25.227 66.7719 25.227H67.1586C67.9562 24.8526 68.7296 24.0803 69.9381 24.0803C69.6803 23.8307 69.4144 23.7059 69.1405 23.7059H66.7719ZM59.2553 23.7059C58.8686 23.7059 58.8686 24.0803 58.8686 24.4314C58.8686 24.9618 58.9975 25.227 59.2553 25.227H62.0348C62.4457 25.227 62.8324 25.227 62.8324 24.4314C62.8324 24.0569 62.4457 23.7059 62.0348 23.7059H59.2553ZM52.1496 23.7059C51.7629 23.7059 51.352 24.0803 51.352 24.4314C51.352 25.227 51.7629 25.227 52.1496 25.227H54.5182C54.929 25.227 55.3399 25.227 55.3399 24.4314C55.3399 24.0569 54.929 23.7059 54.5182 23.7059H52.1496ZM52.1496 28.9947C51.7629 28.9947 51.352 29.4159 51.352 29.7903C51.352 30.1648 51.7629 30.586 52.1496 30.586H54.5182C54.929 30.586 55.3399 30.1648 55.3399 29.7903C55.3399 29.4159 54.929 28.9947 54.5182 28.9947H52.1496ZM59.2553 28.9947C58.8686 28.9947 58.8686 29.4159 58.8686 29.7903C58.8686 30.1648 58.8686 30.586 59.2553 30.586H62.0348C62.4457 30.586 62.8324 30.1648 62.8324 29.7903C62.8324 29.4159 62.4457 28.9947 62.0348 28.9947H59.2553ZM74.6511 32.8326V33.2538C74.6511 33.5034 74.5222 33.7452 74.2644 33.9793H77.4305C77.8173 33.9793 78.2281 33.6048 78.2281 33.2538C78.2281 32.8326 77.8173 32.8326 77.4305 32.8326H74.6269H74.6511ZM73.491 26.7481C73.0801 26.7481 72.6934 27.1226 72.6934 27.4736V32.1071L73.0801 31.6859C73.491 31.6859 73.9018 32.1071 73.9018 32.1071V27.4736C73.9018 27.0992 73.491 26.7481 73.491 26.7481ZM73.0801 32.1071C72.6934 32.1071 72.2825 32.4815 72.2825 33.2772C72.2825 33.6516 72.6934 34.3771 73.0801 34.3771C73.9018 34.3771 74.2886 33.6516 74.2886 33.2772C74.2886 32.4815 73.9018 32.1071 73.0801 32.1071ZM48.5967 8.40121C47.7991 8.40121 47.0257 9.19686 47.0257 10.2967V33.2772C47.0257 34.0027 47.8233 34.7983 48.5967 34.7983H63.2191V32.856H50.5786C49.781 32.856 49.0076 32.4815 49.0076 31.3349V16.0302H72.2825V23.2847H74.2644V10.2967C74.2644 9.19686 73.4668 8.40121 72.6934 8.40121H48.5967ZM12.2946 20.2191C12.2946 19.9694 12.4235 19.8446 12.6813 19.8446C13.4789 19.049 21.358 18.6979 23.3399 19.8446C23.7508 19.8446 24.1375 19.8446 24.1375 20.2191C25.7085 21.0147 26.917 21.0147 28.4879 20.6403C30.4698 19.8446 32.0408 18.698 33.2493 17.1768V4.98456C33.2493 2.29337 35.6179 0 38.3731 0H83.4003C86.1798 0 88.5242 2.31677 88.5242 4.98456V44.6504C88.5242 47.7628 86.1556 49.6584 83.4003 49.6584H38.349C35.5695 49.6584 33.2251 47.7628 33.2251 44.6504V26.3737C32.4275 26.3737 31.6299 26.7481 30.8565 27.0992C29.6722 27.4736 28.4638 27.4736 27.6904 27.4736V45.8205C27.6904 46.6162 27.2795 47.7628 26.8928 48.5117V81.7187C26.8928 84.0355 25.3218 85.931 22.929 85.931C20.5363 85.931 18.5786 84.0355 18.5786 81.7187V53.5197H18.1919V81.7187C18.1919 84.0355 16.21 85.931 13.8414 85.931C11.4728 85.931 9.49097 84.0355 9.49097 81.7187V49.6818C9.49097 49.6818 9.08009 50.0562 8.69339 50.0562C8.28251 50.4774 7.8958 50.4774 7.09822 50.4774C5.9381 50.4774 4.72964 49.6818 3.95623 48.8861C-5.92897 30.9838 7.91997 22.9337 12.2704 20.2425L12.2946 20.2191Z" fill="white"/>
</g>
<defs>
<clipPath id="clip0_1122_7915">
<rect width="88" height="97" fill="white" transform="translate(0.5)"/>
</clipPath>
</defs>
</svg>
