<svg width="89" height="90" viewBox="0 0 89 90" fill="none" xmlns="http://www.w3.org/2000/svg">
<g clip-path="url(#clip0_1122_7893)">
<path fill-rule="evenodd" clip-rule="evenodd" d="M47.6651 43.9372V42.928L49.0601 41.5323V43.9372H47.6651ZM50.455 43.9372V40.1367L51.9144 38.6766V43.9372H50.455ZM53.245 43.9372V37.2809L54.7044 35.8853V43.9372H53.245ZM56.4427 43.9372V34.1461L57.8377 32.7504V43.9372H56.4427ZM59.2327 43.9372V31.3548L60.6277 29.9591V43.9372H59.2327ZM62.409 43.9372V28.5634L63.4606 27.1678V43.9372H62.409ZM65.199 43.9372V25.3856L66.5939 23.99V43.9372H65.199ZM68.0104 43.9372V22.5729L69.4054 21.1772V43.9372H68.0104ZM70.8004 43.9372V19.7815L72.1953 18.3859V43.9372H70.8004ZM73.9766 43.9372V16.6682L75.3716 15.2081V43.9372H73.9766ZM88.3342 43.9372V38.011C88.6776 39.7502 88.9995 41.8759 88.9995 43.9372H88.3342ZM86.9392 31.3548V43.9372H85.5443V27.5113V27.8549C85.8876 28.907 86.5959 30.3027 86.9392 31.3762V31.3548ZM83.8059 24.3121V43.9372H82.3465V21.9072C83.0762 22.9164 83.3981 23.6464 83.8059 24.3121ZM80.973 19.4595V43.9372H79.578V17.6558C79.9643 18.3859 80.6511 19.0515 80.973 19.438V19.4595ZM11.1809 69.2093H9.12059V71.2706H11.1809V69.2093ZM11.1809 65.3444H9.12059V67.4057H11.1809V65.3444ZM9.09912 61.501V63.5622H11.1594V61.501H9.09912ZM5.25755 61.501V63.5622H7.31784V61.501H5.25755ZM15.0868 73.0742H12.9622V75.1355H15.0868V73.0742ZM15.0868 69.2093H12.9622V71.2706H15.0868V69.2093ZM15.0868 65.3444H12.9622V67.4057H15.0868V65.3444ZM15.0868 61.501H12.9622V63.5622H15.0868V61.501ZM12.9622 57.6361V59.3753H15.0868V57.6361H12.9622ZM9.09912 57.6361V59.3753H11.1594V57.6361H9.09912ZM5.25755 57.6361V59.3753H7.31784V57.6361H5.25755ZM18.9499 76.9176H16.8252V78.9789H18.9499V76.9176ZM18.9499 73.0742H16.8252V75.1355H18.9499V73.0742ZM18.9499 69.2093H16.8252V71.2706H18.9499V69.2093ZM18.9499 65.3444H16.8252V67.4057H18.9499V65.3444ZM18.9499 61.501H16.8252V63.5622H18.9499V61.501ZM18.9499 57.6361H16.8252V59.3753H18.9499V57.6361ZM16.8252 53.7712V55.5104H18.9499V53.7712H16.8252ZM12.9622 53.7712V55.5104H15.0868V53.7712H12.9622ZM9.09912 53.7712V55.5104H11.1594V53.7712H9.09912ZM5.25755 53.7712V55.5104H7.31784V53.7712H5.25755ZM1.39452 53.7712V55.5104H3.4548V53.7712H1.39452ZM22.7914 76.9176H20.6668V78.9789H22.7914V76.9176ZM22.7914 73.0742H20.6668V75.1355H22.7914V73.0742ZM22.7914 69.2093H20.6668V71.2706H22.7914V69.2093ZM22.7914 65.3444H20.6668V67.4057H22.7914V65.3444ZM22.7914 61.501H20.6668V63.5622H22.7914V61.501ZM22.7914 57.6361H20.6668V59.3753H22.7914V57.6361ZM22.7914 53.7712H20.6668V55.5104H22.7914V53.7712ZM20.6668 49.9277V51.667H22.7914V49.9277H20.6668ZM16.8252 49.9277V51.667H18.9499V49.9277H16.8252ZM12.9622 49.9277V51.667H15.0868V49.9277H12.9622ZM9.09912 49.9277V51.667H11.1594V49.9277H9.09912ZM5.25755 49.9277V51.667H7.31784V49.9277H5.25755ZM1.39452 49.9277V51.667H3.4548V49.9277H1.39452ZM26.6545 80.7825H24.5298V82.8438H26.6545V80.7825ZM26.6545 76.9176H24.5298V78.9789H26.6545V76.9176ZM26.6545 73.0742H24.5298V75.1355H26.6545V73.0742ZM26.6545 69.2093H24.5298V71.2706H26.6545V69.2093ZM26.6545 65.3444H24.5298V67.4057H26.6545V65.3444ZM26.6545 61.501H24.5298V63.5622H26.6545V61.501ZM26.6545 57.6361H24.5298V59.3753H26.6545V57.6361ZM26.6545 53.7712H24.5298V55.5104H26.6545V53.7712ZM26.6545 49.9277H24.5298V51.667H26.6545V49.9277ZM24.5298 45.7193V47.7806H26.6545V45.7193H24.5298ZM20.6668 45.7193V47.7806H22.7914V45.7193H20.6668ZM16.8252 45.7193V47.7806H18.9499V45.7193H16.8252ZM12.9622 45.7193V47.7806H15.0868V45.7193H12.9622ZM9.09912 45.7193V47.7806H11.1594V45.7193H9.09912ZM5.25755 45.7193V47.7806H7.31784V45.7193H5.25755ZM1.39452 45.7193V47.7806H3.4548V45.7193H1.39452ZM30.496 80.7825H28.3714V82.8438H30.496V80.7825ZM30.496 76.9176H28.3714V78.9789H30.496V76.9176ZM30.496 73.0742H28.3714V75.1355H30.496V73.0742ZM30.496 69.2093H28.3714V71.2706H30.496V69.2093ZM30.496 65.3444H28.3714V67.4057H30.496V65.3444ZM30.496 61.501H28.3714V63.5622H30.496V61.501ZM30.496 57.6361H28.3714V59.3753H30.496V57.6361ZM30.496 53.7712H28.3714V55.5104H30.496V53.7712ZM30.496 49.9277H28.3714V51.667H30.496V49.9277ZM30.496 45.7193H28.3714V47.7806H30.496V45.7193ZM28.3928 41.8759H30.5175V43.9372H28.3928V41.8759ZM24.5298 41.8759H26.6545V43.9372H24.5298V41.8759ZM20.6668 41.8759H22.7914V43.9372H20.6668V41.8759ZM16.8252 41.8759H18.9499V43.9372H16.8252V41.8759ZM12.9622 41.8759H15.0868V43.9372H12.9622V41.8759ZM9.09912 41.8759V43.9372H11.1594V41.8759H9.09912ZM5.25755 41.8759V43.9372H7.31784V41.8759H5.25755ZM1.39452 41.8759V43.9372H3.4548V41.8759H1.39452ZM34.3591 76.9176V78.9789H32.2344V76.9176H34.3591ZM34.3591 73.0742V75.1355H32.2344V73.0742H34.3591ZM34.3591 69.2093V71.2706H32.2344V69.2093H34.3591ZM34.3591 65.3444V67.4057H32.2344V65.3444H34.3591ZM34.3591 61.501V63.5622H32.2344V61.501H34.3591ZM34.3591 57.6361V59.3753H32.2344V57.6361H34.3591ZM34.3591 53.7712V55.5104H32.2344V53.7712H34.3591ZM34.3591 49.9277V51.667H32.2344V49.9277H34.3591ZM34.3591 45.7193V47.7806H32.2344V45.7193H34.3591ZM34.3591 41.8759V43.9372H32.2344V41.8759H34.3591ZM32.2344 38.011H34.3591V40.1367H32.2344V38.011ZM28.3928 38.011H30.5175V40.1367H28.3928V38.011ZM24.5298 38.011H26.6545V40.1367H24.5298V38.011ZM20.6668 38.011H22.7914V40.1367H20.6668V38.011ZM16.8252 38.011H18.9499V40.1367H16.8252V38.011ZM12.9622 38.011H15.0868V40.1367H12.9622V38.011ZM9.09912 38.011V40.1367H11.1594V38.011H9.09912ZM5.25755 38.011V40.1367H7.31784V38.011H5.25755ZM1.39452 38.011V40.1367H3.4548V38.011H1.39452ZM38.2221 61.501V63.5622H36.0974V61.501H38.2221ZM38.2221 57.6361V59.3753H36.0974V57.6361H38.2221ZM38.2221 53.7712V55.5104H36.0974V53.7712H38.2221ZM38.2221 49.9277V51.667H36.0974V49.9277H38.2221ZM38.2221 45.7193V47.7806H36.0974V45.7193H38.2221ZM38.2221 41.8759V43.9372H36.0974V41.8759H38.2221ZM28.3928 34.1461H30.5175V36.2718H28.3928V34.1461ZM24.5298 34.1461H26.6545V36.2718H24.5298V34.1461ZM20.6668 34.1461H22.7914V36.2718H20.6668V34.1461ZM16.8252 34.1461H18.9499V36.2718H16.8252V34.1461ZM12.9622 34.1461H15.0868V36.2718H12.9622V34.1461ZM9.09912 34.1461V36.2718H11.1594V34.1461H9.09912ZM5.25755 34.1461V36.2718H7.31784V34.1461H5.25755ZM1.39452 34.1461V36.2718H3.4548V34.1461H1.39452ZM42.0851 45.7193V47.7806H39.9605V45.7193H42.0851ZM24.5298 30.3027H26.6545V32.4283H24.5298V30.3027ZM20.6668 30.3027H22.7914V32.4283H20.6668V30.3027ZM16.8252 30.3027H18.9499V32.4283H16.8252V30.3027ZM12.9622 30.3027H15.0868V32.4283H12.9622V30.3027ZM9.09912 30.3027V32.4283H11.1594V30.3027H9.09912ZM5.25755 30.3027V32.4283H7.31784V30.3027H5.25755ZM20.6668 26.4378H22.7914V28.5634H20.6668V26.4378ZM16.8252 26.4378H18.9499V28.5634H16.8252V26.4378ZM12.9622 26.4378H15.0868V28.5634H12.9622V26.4378ZM9.09912 26.4378V28.5634H11.1594V26.4378H9.09912ZM5.25755 26.4378V28.5634H7.31784V26.4378H5.25755ZM16.8252 22.5943H18.9499V24.72H16.8252V22.5943ZM12.9622 22.5943H15.0868V24.72H12.9622V22.5943ZM9.09912 22.5943V24.72H11.1594V22.5943H9.09912ZM12.9622 18.7294H15.0868V20.8551H12.9622V18.7294ZM9.09912 18.7294V20.8551H11.1594V18.7294H9.09912ZM26.6545 85.6351V84.5615H24.5298V84.948C23.4782 84.218 22.0617 83.5524 21.0101 82.8223H22.7914V80.761H20.6668V82.5002C19.9371 82.1567 19.6152 81.7702 18.9284 81.4481V80.7825H17.8768C17.1471 80.0525 15.7521 79.0004 15.0868 78.3133V76.9176H13.3055C12.5759 76.1876 11.9106 75.1355 11.1809 74.4484V73.0527H9.78588C9.4425 72.6662 9.12059 72.3227 9.12059 72.0006C8.3909 71.2706 7.7256 70.2185 7.3393 69.2093H6.99592C6.65254 68.4793 6.33062 68.1572 5.94431 67.4271H7.3393V65.3659H5.27901V66.0315C4.54933 64.6358 3.88403 63.5622 3.49773 62.1666V61.501H3.15435C2.81096 60.7709 2.81096 60.1053 2.48905 59.3753H3.49773V57.6361H1.75936C0.707758 53.4491 0.0209961 49.1977 0.0209961 45.0107C0.0209961 40.4802 0.686296 36.6368 1.75936 32.4283H3.49773V30.3027H2.48905C2.48905 29.9591 2.83243 29.2505 2.83243 28.5634H3.49773V27.8334C3.88403 26.4378 4.57079 25.0421 5.27901 23.9685V24.6986H7.3393V22.5729H5.94431C6.33062 22.2293 6.674 21.4993 6.99592 20.8337H7.3393V20.4901C8.06898 19.03 8.73428 18.0209 9.80735 16.9688H11.2023V15.5731C11.5886 14.8431 11.932 14.4995 12.2539 14.1774L13.327 14.8431H12.9836V16.9688H15.1083V16.6252L17.1686 18.6865H16.8252V20.8122H18.9499V20.4686L21.0101 22.5299H20.6668V24.6556H22.7914V24.2691L24.8517 26.3948H24.5083V28.5205H26.633V28.134L28.6933 30.2597H28.3499V32.3854H30.4746V31.9989L32.5349 34.1246H32.1915V36.2503H34.3161V35.8638L36.3764 37.9895H36.0331V40.1152H38.1577V39.7287L40.218 41.8544H39.8746V43.9157H41.9993V43.5721L43.3943 44.9678L41.9993 50.2283V49.8848H39.8746V51.624H41.613L41.2696 53.7497H39.8746V55.4889H40.6043L39.8746 57.6146L38.1363 65.3229H36.0116V67.3842H37.4066L37.0632 69.1663H35.9901V71.2276H36.3335L33.8869 80.7396H32.1486V82.8008H33.2216L32.8782 84.54H32.1486V87.7178C30.7536 87.3743 30.0239 86.9878 29.0152 86.6657H30.4102V84.54H28.2855V86.3222C27.5558 86.3222 27.2125 85.9357 26.5472 85.5922L26.6545 85.6351ZM75.715 76.5311C83.8274 68.4793 88.6776 57.6361 89.021 45.7193H45.2185L33.6508 88.1043C35.3892 88.4908 37.1705 88.8344 38.5655 89.1565C40.6902 89.1565 42.4285 89.5 44.5532 89.5C56.7861 89.5 67.6885 84.2394 75.7365 76.5311H75.715ZM61.3574 3.6778C56.0994 1.55211 50.455 0.5 44.5317 0.5C38.6084 0.5 32.5778 1.57358 27.6631 3.6778C22.4051 5.73908 17.4905 8.93836 13.6275 12.7818L44.5317 43.5936L75.3716 12.7818C71.1867 8.91689 66.5939 5.73908 61.3359 3.6778H61.3574ZM78.1616 15.9381V43.9372H76.7666V14.1989C77.11 14.8645 77.8182 15.2081 78.1616 15.9381Z" fill="white"/>
</g>
<defs>
<clipPath id="clip0_1122_7893">
<rect width="89" height="89" fill="white" transform="translate(0 0.5)"/>
</clipPath>
</defs>
</svg>
