<svg width="97" height="97" viewBox="0 0 97 97" fill="none" xmlns="http://www.w3.org/2000/svg">
<g clip-path="url(#clip0_1122_7909)">
<path fill-rule="evenodd" clip-rule="evenodd" d="M96.6204 85.9076C96.6204 85.9076 94.5377 80.1742 91.2358 74.0897C86.2829 64.5184 81.2792 58.785 75.8692 56.1406L65.9126 51.9283L61.7726 48.8627V39.7127C67.589 37.0215 70.8909 31.6625 70.8909 25.9525C70.8909 17.1768 63.4235 10.2967 53.8734 10.2967C44.3232 10.2967 36.8812 17.1768 36.8812 25.9525C36.8812 31.6859 40.1831 37.0449 45.9996 39.7127V47.716C45.9996 48.0905 45.9996 48.8393 46.4314 49.2371L42.2659 51.9283C42.2659 51.9283 23.191 60.3295 16.5364 61.8272C17.3745 58.0128 19.0255 53.0516 20.7018 48.8393C21.921 45.0248 19.8383 40.8359 15.6728 39.6892C11.9645 38.5426 7.79899 40.4615 6.14803 44.2526C6.14803 44.2526 4.06529 49.5882 2.41433 55.3216C-0.506593 66.414 -0.912982 71.0007 1.98254 74.4173C3.22711 76.3363 5.74164 77.483 8.63716 77.483C13.209 77.483 21.4892 75.564 30.2266 72.5218V96.9532H78.3583V81.2974C80.0093 84.3397 81.2792 87.3819 81.6856 88.9498C81.2538 90.4709 80.822 93.1153 79.1711 96.9532H95.3759C96.595 92.3898 97.0014 89.3008 97.0014 88.552C97.0014 87.8031 97.0014 87.0308 96.595 85.8608L96.6204 85.9076ZM50.5461 27.4736H51.3842C51.816 27.4736 52.2224 27.8714 51.816 28.2692L51.3842 33.6048C51.3842 33.6048 51.3842 33.9792 51.816 33.6048L58.4198 25.2036C58.8516 24.8292 58.4198 24.8292 57.9881 24.8292H56.7689C56.3625 24.8292 56.3625 24.4314 56.3625 24.0569L58.4198 19.049C58.4198 18.6745 58.4198 18.3235 57.9881 18.3235H54.2798C53.848 18.3235 53.4162 18.6979 53.4162 19.049L50.1143 27.0991C50.1143 27.3488 50.2582 27.4736 50.5461 27.4736ZM82.092 25.9525C82.092 24.4314 80.8474 23.6591 79.6029 23.6591H74.1928C72.5673 23.6591 71.7037 24.4314 71.7037 25.9525C71.7037 27.0991 72.5673 28.2692 74.1928 28.2692H79.6029C80.822 28.2692 82.092 27.1225 82.092 25.9525ZM76.2756 39.736C77.1391 39.736 77.9519 39.3382 78.3583 38.5894C78.7647 38.1915 78.7647 37.4427 78.3583 37.0683C78.3583 36.6704 77.9519 35.9216 77.5201 35.5471L72.5673 33.2538C72.1355 32.856 71.7037 32.856 71.2719 32.856C70.4845 32.856 69.6209 33.2538 69.2146 33.9792C68.8082 34.3771 68.8082 35.1259 69.2146 35.5238C69.2146 36.296 69.6209 36.647 70.0527 37.0449L75.0564 39.736H76.2756ZM40.9959 3.04222C40.5641 3.04222 40.1577 3.04222 39.7513 3.44005C39.3449 3.81447 38.964 4.2123 38.964 4.96116C38.5322 5.33558 38.5322 6.08444 38.964 6.48227L41.8849 10.6946C42.2913 11.4668 43.104 11.8178 43.9422 11.8178H45.1868C45.5932 11.4434 46.025 11.0456 46.025 10.2967C46.4568 9.92231 46.4568 9.17346 46.025 8.77563L43.104 4.2123C42.6723 3.44005 41.8849 3.06562 41.0213 3.06562L40.9959 3.04222ZM37.694 14.509L33.1221 12.2157C32.6903 11.8178 32.2839 11.8178 31.8775 11.8178C31.0394 11.8178 30.2266 12.2157 29.8202 12.9645C28.9566 14.1112 29.3884 15.2579 30.6076 16.0068L35.1795 18.6979H36.424C37.2622 18.6979 38.075 18.3235 38.5068 17.5513C38.9386 17.1768 38.9386 16.428 38.9386 16.0302C38.5068 15.2579 38.075 14.9069 37.694 14.509ZM28.1438 28.2692H33.9603C35.1795 28.2692 36.0176 27.1225 36.0176 25.9525C36.0176 24.4314 35.1795 23.6591 33.9603 23.6591H28.1438C26.8993 23.6591 25.6547 24.4314 25.6547 25.9525C25.6547 27.0991 26.8739 28.2692 28.1438 28.2692ZM31.8775 39.736H33.1221L37.694 37.0449C38.1004 36.647 38.5322 36.2726 38.9386 35.5238C38.9386 35.1259 38.9386 34.3771 38.5068 33.9792C38.075 33.2538 37.2622 32.856 36.424 32.856C35.9922 32.856 35.5858 32.856 35.1795 33.2538L30.6076 35.5471C29.3884 36.3194 28.9566 37.8405 29.8202 38.5894C30.2266 39.3616 31.0394 39.736 31.8775 39.736ZM61.7726 10.2967C61.7726 11.069 62.1789 11.4434 62.5599 11.8178H63.8553C65.0745 11.8178 65.5063 11.4434 65.9126 11.0456L68.859 6.48227C69.2654 6.08444 69.2654 5.33558 69.2654 4.96116C68.859 4.1889 68.4272 3.81447 68.0208 3.44005C67.6144 3.04222 67.1826 3.04222 66.7508 3.04222C65.9126 3.04222 65.0999 3.44005 64.6935 4.1889L61.7726 8.75223C61.7726 9.15006 61.3408 9.89891 61.7726 10.2733V10.2967ZM72.5673 18.6979L77.5201 16.0068C77.9519 15.6323 78.3583 15.2345 78.3583 14.4856C78.7647 14.1112 78.7647 13.3624 78.3583 12.9645C77.9519 12.1923 77.1391 11.8178 76.2756 11.8178C75.8438 11.8178 75.4374 11.8178 75.0564 12.2157L70.0527 14.509C69.6209 14.9069 69.2146 15.2813 69.2146 16.0302C68.8082 16.428 68.8082 17.1768 69.2146 17.5513C69.6209 18.3469 70.4591 18.6979 71.2719 18.6979H72.5673ZM51.3842 2.29336V7.25452C51.3842 8.4012 52.6288 9.54788 53.8734 9.54788C55.1687 9.54788 56.3879 8.4246 56.3879 7.25452V2.29336C56.3879 1.17008 55.1687 0 53.8734 0C52.6542 0 51.3842 1.14668 51.3842 2.29336ZM58.4198 51.5539L57.9881 51.9517V51.5539H58.4198ZM54.7115 54.9939L58.8516 71.0475L54.7115 76.7341H53.848L49.7079 71.0475H49.2761L53.848 54.9939H54.7115ZM53.848 14.509C60.5026 14.509 66.319 19.4702 66.319 25.9759C66.319 30.1882 63.3981 33.9792 59.2834 35.8982L57.2007 36.6704V40.5083H50.9778V37.0683L50.5461 36.6704L48.4633 35.8982C44.2978 33.9792 41.8595 30.1648 41.8595 25.9759C41.8595 19.4936 47.2441 14.509 53.8734 14.509H53.848ZM57.2007 45.0482V46.9672H50.9778V45.0482H57.2007Z" fill="white"/>
</g>
<defs>
<clipPath id="clip0_1122_7909">
<rect width="97" height="97" fill="white"/>
</clipPath>
</defs>
</svg>
