<svg width="103" height="27" viewBox="0 0 103 27" fill="none" xmlns="http://www.w3.org/2000/svg">
<g clip-path="url(#clip0_2008_4976)">
<path d="M12.395 26.9998C11.2508 26.8575 10.111 26.6693 9.00699 26.3021C8.12647 26.0083 8.10859 26.0221 8.4751 25.1683C10.8619 19.6095 13.2488 14.0553 15.6444 8.50114C15.7115 8.34048 15.7473 8.11097 15.9976 8.13392C16.2882 8.16146 16.2523 8.4231 16.2747 8.6113C16.4714 10.3464 16.6546 12.0861 16.8424 13.8212C17.0926 16.1393 17.3385 18.4528 17.5888 20.7708C17.7631 22.405 17.9285 24.0437 18.1117 25.6778C18.1475 26.0083 17.9509 26.0863 17.7184 26.1736C16.6233 26.5683 15.5059 26.8483 14.3438 26.9309C14.2276 26.9401 14.1158 26.9768 14.0041 26.9998C13.4677 26.9998 12.9314 26.9998 12.395 26.9998Z" fill="white"/>
<path d="M34.52 26.9999C34.511 26.8989 34.4931 26.7979 34.4931 26.6924C34.4797 25.7284 34.6183 25.7743 33.5455 25.7743C32.893 25.7743 32.2404 25.7651 31.5878 25.7789C31.2526 25.7835 31.0962 25.6504 31.1007 25.2969C31.1051 23.548 31.1096 21.7991 31.1007 20.0503C31.0962 19.605 31.3509 19.5683 31.6906 19.5637C32.0438 19.5591 32.2181 19.6739 32.2181 20.0594C32.2092 21.4136 32.2314 22.7677 32.2092 24.1218C32.2001 24.5992 32.3744 24.7461 32.826 24.7415C33.8048 24.7323 33.8048 24.7507 33.8048 23.7362C33.8048 22.5382 33.8182 21.3355 33.8004 20.1375C33.7958 19.7198 33.9345 19.5591 34.3501 19.5591C34.7658 19.5591 34.8552 19.7565 34.8507 20.1283C34.8373 21.4641 34.8463 22.8044 34.8463 24.1402C34.8463 24.4202 34.8239 24.7002 35.1993 24.7644C35.3647 24.792 35.3736 24.9481 35.3692 25.0904C35.3558 25.7238 35.3468 26.3573 35.3334 26.9907C35.0563 26.9999 34.7881 26.9999 34.52 26.9999Z" fill="white"/>
<path d="M102.995 25.7604C102.044 25.765 101.087 25.7558 100.135 25.7742C99.7816 25.7788 99.6295 25.6824 99.6344 25.283C99.6521 23.5204 99.6482 21.7531 99.6344 19.9859C99.6295 19.6692 99.7325 19.559 100.032 19.5636C101.02 19.5774 102.007 19.5728 102.995 19.5774C102.995 19.8849 102.995 20.197 102.995 20.5046C102.575 20.6744 102.133 20.5918 101.704 20.5964C100.636 20.6102 100.609 20.6423 100.694 21.7302C100.716 22.0102 100.823 22.1341 101.096 22.1295C101.463 22.125 101.834 22.1433 102.2 22.1295C102.562 22.1158 102.719 22.2581 102.714 22.6391C102.71 23.0017 102.553 23.1348 102.222 23.1119C102.07 23.1027 101.923 23.1119 101.771 23.1119C100.609 23.1394 100.708 22.8732 100.698 24.2594C100.694 24.6312 100.864 24.7322 101.19 24.7276C101.794 24.7184 102.397 24.7276 103 24.7276C102.995 25.0765 102.995 25.4208 102.995 25.7604Z" fill="white"/>
<path d="M0.612754 17.5122C0.572527 17.2092 0.791541 17.1312 0.947981 17.0256C2.95487 15.6623 4.96623 14.3036 6.98207 12.9449C9.4985 11.2465 12.015 9.5527 14.5358 7.8589C14.7012 7.74874 14.8666 7.49627 15.1035 7.68906C15.3672 7.90481 15.1437 8.13891 15.0498 8.3317C13.0832 12.4032 11.1076 16.4702 9.13198 20.5371C8.43025 21.9785 7.72403 23.4198 7.02676 24.8657C6.90161 25.1274 6.7988 25.3064 6.46805 25.0998C3.66108 23.3418 1.7123 20.8814 0.657451 17.6774C0.639572 17.6131 0.621693 17.5443 0.612754 17.5122Z" fill="white"/>
<path d="M16.8558 8.38654C16.8201 8.13408 16.9319 8.04227 17.0749 7.96424C17.285 7.84948 17.4191 7.96424 17.5532 8.11113C18.1342 8.74917 18.7197 9.38722 19.3008 10.0253C20.9188 11.8109 22.5324 13.5965 24.146 15.3775C24.6242 15.9054 25.098 16.4378 25.5852 16.9519C25.7863 17.1631 25.822 17.3651 25.7327 17.6451C24.7091 20.8399 22.7737 23.2911 19.9891 25.0491C19.5869 25.3016 19.5019 25.2511 19.4259 24.7508C19.0594 22.4006 18.6974 20.0504 18.3264 17.7002C17.8482 14.6385 17.3609 11.5814 16.8782 8.51966C16.8693 8.4554 16.8558 8.38654 16.8558 8.38654Z" fill="white"/>
<path d="M0.00491526 13.6515C0.0183243 10.8652 0.684308 8.49198 2.00733 6.30702C2.20848 5.97193 2.44537 5.8434 2.82529 5.86635C5.6993 6.04078 8.57332 6.20144 11.4473 6.3621C12.3189 6.41259 13.1861 6.44473 14.0576 6.48604C14.2677 6.49522 14.5135 6.45391 14.5984 6.74309C14.6923 7.05982 14.451 7.1608 14.2498 7.28474C9.95 9.87823 5.64567 12.4718 1.34582 15.0607C1.08658 15.2167 0.818399 15.3636 0.568096 15.5289C0.264158 15.7263 0.139006 15.5977 0.116658 15.281C0.0674909 14.6659 -0.0219029 14.0554 0.00491526 13.6515Z" fill="white"/>
<path d="M81.5678 9.77266C80.9108 11.0809 80.1911 12.357 79.619 13.7019C79.2525 14.5557 78.7743 14.8954 77.8714 14.7852C77.1383 14.698 77.1294 14.7669 77.1294 13.9957C77.1294 11.1819 77.1294 8.37263 77.1294 5.55881C77.1294 4.83355 77.1338 4.83355 77.8088 4.82896C79.1944 4.81978 79.1944 4.81978 79.1944 6.23357C79.1944 7.56475 79.1944 8.89592 79.1944 10.2868C79.4357 10.0711 79.5028 9.84151 79.6011 9.63036C80.2894 8.18443 80.9912 6.7385 81.6661 5.28339C81.8271 4.94371 82.0371 4.8106 82.4081 4.81978C84.035 4.86109 83.7937 4.58567 83.8026 6.2198C83.8161 8.84084 83.7937 11.4665 83.8161 14.0875C83.8205 14.5925 83.682 14.8266 83.1634 14.7715C82.8506 14.7393 82.5288 14.7485 82.2114 14.7669C81.8181 14.7898 81.6795 14.6108 81.684 14.2206C81.6974 12.9354 81.6885 11.6501 81.6885 10.3648C81.6885 10.1766 81.6885 9.99299 81.6885 9.80479C81.6437 9.79561 81.6035 9.78184 81.5678 9.77266Z" fill="white"/>
<path d="M44.9879 9.82794C44.9879 10.4798 45.0059 11.1316 44.9835 11.7788C44.9344 13.188 44.1342 14.2989 42.914 14.6982C41.6179 15.1205 40.116 14.712 39.3919 13.7343C38.9181 13.0962 38.7348 12.348 38.7214 11.5677C38.7035 10.3513 38.7035 9.13481 38.7214 7.9184C38.7438 6.04557 40.0176 4.74653 41.8324 4.73735C43.656 4.72817 44.9433 5.99967 44.9924 7.8679C45.0059 8.5289 44.9924 9.18071 44.9879 9.82794C44.9924 9.82794 44.9924 9.82794 44.9879 9.82794ZM42.8604 9.82335C42.8604 9.15317 42.8783 8.48759 42.8559 7.81741C42.8381 7.27117 42.4805 6.88559 42.0022 6.83969C41.4077 6.78001 40.9742 7.07838 40.8401 7.65216C40.8043 7.79905 40.7909 7.95512 40.7909 8.11119C40.7864 9.22662 40.7864 10.3421 40.7909 11.4529C40.7909 11.6228 40.8133 11.7972 40.8579 11.9579C41.0189 12.55 41.4032 12.8254 41.9709 12.7657C42.5341 12.7061 42.847 12.3572 42.8604 11.7283C42.8694 11.0903 42.8604 10.4568 42.8604 9.82335Z" fill="white"/>
<path d="M26.3984 13.578C26.4386 13.9957 26.309 14.5741 26.2912 15.1571C26.2867 15.2718 26.3001 15.4187 26.166 15.4692C26.0319 15.5243 25.9559 15.3957 25.8755 15.3177C25.4688 14.9321 25.062 14.5511 24.6642 14.161C22.4785 12.0357 20.2973 9.9058 18.1161 7.78052C17.9418 7.61068 17.6915 7.46378 17.8569 7.14246C18.0222 6.82115 17.9731 6.38508 18.5273 6.33C20.2571 6.15098 21.9824 5.91228 23.7077 5.69195C23.9848 5.65523 24.0876 5.8526 24.2083 6.0408C25.6431 8.27625 26.3671 10.7366 26.3984 13.578Z" fill="white"/>
<path d="M12.1579 0.00474669C12.3679 -0.0273851 12.5289 0.105732 12.6585 0.339835C13.4451 1.75822 14.2363 3.16743 15.0274 4.58122C15.1258 4.76024 15.2554 4.96222 15.0364 5.13205C14.7413 5.35698 14.8039 5.94453 14.2005 5.86649C10.7499 5.42124 7.2904 5.00353 3.8398 4.57204C3.71465 4.55827 3.54033 4.62254 3.48222 4.45729C3.43306 4.30581 3.58502 4.21859 3.67442 4.12679C5.58745 2.08413 7.90722 0.79886 10.6069 0.225079C11.0136 0.137864 11.4338 0.0919614 11.845 0.0276979C11.9299 0.0139272 12.0149 0.0139272 12.1579 0.00474669Z" fill="white"/>
<path d="M62.6564 9.79578C62.6564 8.33608 62.6698 6.88097 62.6475 5.42127C62.643 4.98061 62.7816 4.81536 63.2241 4.81995C64.7482 4.83831 66.2724 4.83372 67.7966 4.81995C68.172 4.81536 68.3463 4.9347 68.3374 5.34783C68.3016 7.07835 68.5564 6.78916 66.9562 6.81212C66.3707 6.8213 65.7851 6.8213 65.1996 6.81212C64.8599 6.80753 64.7125 6.959 64.7214 7.30786C64.7527 9.05216 64.48 8.70789 66.0579 8.74461C66.5093 8.75379 66.9607 8.75379 67.4167 8.74461C67.7027 8.73543 67.8457 8.82265 67.8368 9.15314C67.7832 11.0351 68.1318 10.6954 66.3663 10.7322C65.9461 10.7413 65.5304 10.7413 65.1103 10.7367C64.8377 10.7322 64.7125 10.8561 64.7214 11.1407C64.7303 11.4987 64.7303 11.8614 64.7214 12.2194C64.7169 12.605 64.8734 12.7748 65.2667 12.7656C66.1026 12.7473 66.9429 12.7748 67.7786 12.7519C68.1854 12.7427 68.3463 12.885 68.3374 13.3165C68.2972 15.0286 68.5743 14.7394 66.9384 14.7624C65.7136 14.7808 64.4934 14.7486 63.2687 14.7762C62.7771 14.7853 62.634 14.6017 62.643 14.1152C62.6698 12.6784 62.6564 11.2371 62.6564 9.79578Z" fill="white"/>
<path d="M31.0826 9.75006C31.0826 8.32709 31.096 6.90411 31.0737 5.48113C31.0648 5.00834 31.1899 4.79719 31.695 4.81555C32.5979 4.85227 33.5008 4.81555 34.408 4.82932C36.2361 4.85227 37.3536 6.0641 37.3491 8.00118C37.3447 9.84646 36.1602 11.1133 34.4036 11.1547C33.1432 11.1822 33.1432 11.1822 33.1476 12.4675C33.1476 13.0826 33.1342 13.7022 33.1565 14.3173C33.17 14.6616 33.0314 14.7764 32.7185 14.7672C32.3521 14.7534 31.9811 14.7488 31.6145 14.7672C31.2256 14.7855 31.0782 14.6203 31.0826 14.2255C31.0915 12.7337 31.0826 11.2419 31.0826 9.75006ZM33.1432 7.88642C33.1432 9.20383 33.1521 9.21301 34.2382 9.15792C34.9131 9.12579 35.2976 8.68054 35.2886 7.93233C35.2797 7.22084 34.94 6.85362 34.2561 6.82149C33.1432 6.7664 33.1432 6.7664 33.1432 7.88642Z" fill="white"/>
<path d="M54.6203 9.54795C54.6649 8.80433 54.5308 7.89546 54.7633 6.99578C55.1208 5.63706 56.1533 4.79705 57.5926 4.74196C59.0676 4.68688 60.2609 5.4764 60.699 6.78003C60.8062 7.09676 60.7795 7.3125 60.4219 7.39972C60.2118 7.45021 59.9973 7.50988 59.7962 7.58792C59.2911 7.79448 58.8664 7.95514 58.558 7.22529C58.3748 6.78003 57.8518 6.72954 57.4004 6.86725C56.9444 7.00955 56.7388 7.37218 56.7388 7.84956C56.7344 9.11647 56.7299 10.388 56.7433 11.6549C56.7478 12.1506 56.9087 12.5729 57.4317 12.7244C57.9681 12.8805 58.4641 12.6648 58.7234 12.1093C58.8709 11.7926 59.0407 11.7697 59.3134 11.866C59.6621 11.9854 60.0151 12.1047 60.3727 12.1874C60.7571 12.2746 60.7928 12.4857 60.69 12.83C60.3637 13.9271 59.2418 14.7625 57.9635 14.8359C55.9655 14.9507 54.6694 13.6838 54.6112 11.5493C54.6068 10.948 54.6203 10.3283 54.6203 9.54795Z" fill="white"/>
<path d="M46.8606 9.72214C46.8606 9.05197 46.8471 8.38638 46.8651 7.7162C46.9008 6.21519 47.8797 5.03091 49.234 4.81976C50.9906 4.54434 52.3851 5.29714 52.9036 6.77061C53.0332 7.14242 52.9841 7.35358 52.5729 7.43161C52.3449 7.47292 52.1169 7.54637 51.898 7.63358C51.4286 7.82637 51.0621 7.91359 50.7984 7.27554C50.6107 6.8257 50.1145 6.75225 49.6587 6.85783C49.1893 6.96799 48.9658 7.33521 48.9345 7.79883C48.8988 8.31294 48.9121 8.82705 48.9121 9.34115C48.9121 10.0801 48.9032 10.8146 48.9167 11.5536C48.9301 12.2513 49.1759 12.6186 49.6676 12.7425C50.2129 12.8802 50.6733 12.6553 50.9548 12.0448C51.0621 11.8107 51.1962 11.7877 51.3884 11.8428C51.7772 11.953 52.1527 12.1044 52.546 12.1779C53.0109 12.2697 52.9975 12.5267 52.8724 12.8848C52.4164 14.1976 51.1023 14.9917 49.6274 14.8402C47.9243 14.6658 46.9276 13.5871 46.8651 11.829C46.8427 11.1267 46.8651 10.4244 46.8606 9.72214Z" fill="white"/>
<path d="M73.536 10.7274C73.536 11.8749 73.5226 13.0271 73.5404 14.1746C73.5493 14.6199 73.393 14.8035 72.9549 14.7714C72.6555 14.7484 72.3515 14.7438 72.052 14.7714C71.5738 14.8173 71.4039 14.6199 71.4084 14.1287C71.4263 12.1044 71.4173 10.0801 71.4173 8.05585C71.4173 7.78044 71.4039 7.50502 71.4173 7.2342C71.4352 6.88534 71.3011 6.72927 70.948 6.74304C70.5458 6.7614 70.1435 6.73845 69.7412 6.75222C69.4819 6.7614 69.3658 6.65583 69.3836 6.38959C69.3881 6.35746 69.3836 6.32074 69.3836 6.28861C69.4149 4.53972 69.1423 4.85645 70.7603 4.8335C72.1683 4.81514 73.5762 4.84268 74.9842 4.82432C75.4178 4.81973 75.5786 4.96662 75.5697 5.41646C75.5384 6.98173 75.7306 6.72468 74.3048 6.74304C73.5315 6.75222 73.5315 6.74763 73.5315 7.53716C73.536 8.5975 73.536 9.66244 73.536 10.7274Z" fill="white"/>
<path d="M14.4419 0.0184002C17.6779 0.362669 20.4402 1.71679 22.7108 4.1129C22.9657 4.37913 22.8986 4.50307 22.5723 4.5811C21.1376 4.92537 19.7072 5.26964 18.2769 5.62768C18.04 5.68736 17.9059 5.62309 17.7718 5.42571C17.383 4.85193 16.8511 4.5352 16.1538 4.5811C15.9348 4.59488 15.8141 4.50307 15.7337 4.3011C15.2017 2.98829 14.6654 1.68007 14.129 0.367259C13.9815 0.01381 14.1871 -0.00455103 14.4419 0.0184002Z" fill="white"/>
<path d="M90.9273 24.3971C90.9273 24.2089 90.9452 24.0161 90.9228 23.8325C90.8915 23.5847 91.0704 23.2174 90.6949 23.1348C90.3105 23.0522 89.9439 23.1945 89.7652 23.5801C89.6266 23.8876 89.5551 24.2273 89.4612 24.5578C89.3853 24.8378 89.3182 25.1224 89.2645 25.407C89.2199 25.6411 89.0947 25.7513 88.8578 25.7742C88.1695 25.8476 88.0756 25.7375 88.2634 25.0489C88.4153 24.4889 88.4377 23.8417 88.7372 23.3827C89.1617 22.7355 89.1082 22.2627 88.7505 21.6338C88.5003 21.1931 88.4555 20.6239 88.3304 20.1052C88.2857 19.9262 88.1293 19.6508 88.4421 19.6049C88.7283 19.559 89.1171 19.4121 89.2601 19.8482C89.421 20.3348 89.5283 20.8397 89.6668 21.3308C89.7786 21.7302 89.9752 22.0561 90.4267 22.1204C90.7529 22.1663 90.9363 22.0607 90.9318 21.6843C90.9183 21.1381 90.9452 20.5872 90.9318 20.041C90.9228 19.637 91.1329 19.5636 91.4682 19.559C91.8168 19.559 92.0581 19.6141 92.0448 20.0548C92.0268 20.5505 92.0357 21.0508 92.0448 21.5466C92.0492 21.7394 91.9732 21.9964 92.2146 22.0928C92.4782 22.1938 92.742 22.1341 92.9655 21.9368C93.1711 21.7577 93.2381 21.5099 93.3096 21.262C93.4258 20.8489 93.5242 20.4357 93.6314 20.018C93.6851 19.8115 93.7432 19.637 93.9935 19.582C94.5969 19.458 94.7757 19.637 94.5969 20.243C94.3734 20.9866 94.3556 21.8082 93.7834 22.4233C93.6314 22.5886 93.8281 22.6941 93.9131 22.8043C94.5075 23.603 94.5254 24.5991 94.7846 25.5126C94.8338 25.687 94.6908 25.7696 94.5432 25.7558C94.2528 25.7329 93.8639 25.9257 93.7298 25.4712C93.5823 24.9617 93.4661 24.443 93.332 23.9335C93.2247 23.5296 93.0281 23.2128 92.5856 23.1256C92.2413 23.0568 92.0313 23.1394 92.0402 23.5525C92.0537 24.1171 92.0268 24.6863 92.0402 25.2509C92.0537 25.6686 91.8614 25.7788 91.486 25.7742C91.1239 25.7696 90.9005 25.6916 90.9228 25.2647C90.9407 24.9801 90.9273 24.6909 90.9273 24.3971Z" fill="white"/>
<path d="M71.1801 23.5666C71.788 22.3226 72.3288 21.2118 72.8786 20.101C72.9725 19.9036 73.035 19.6787 73.2675 19.5914C73.8128 19.3895 74.139 19.6144 74.139 20.2111C74.1436 21.8544 74.1345 23.5023 74.1436 25.1456C74.148 25.5496 74.072 25.7883 73.5982 25.7837C73.1423 25.7791 73.0216 25.5725 73.0306 25.1548C73.044 24.1633 73.0351 23.1718 72.9545 22.1436C72.7937 22.442 72.6239 22.7403 72.4718 23.0433C72.0875 23.8053 71.6897 24.5581 71.341 25.3384C71.131 25.8158 70.7734 25.8204 70.38 25.7561C69.9867 25.6873 70.1074 25.3384 70.1029 25.086C70.094 23.4427 70.1029 21.7948 70.094 20.1514C70.0895 19.7567 70.1879 19.5547 70.6304 19.5547C71.0729 19.5547 71.1577 19.7659 71.1533 20.156C71.1354 21.0833 71.1488 22.0059 71.1488 22.9331C71.1533 23.0984 71.1667 23.2636 71.1801 23.5666Z" fill="white"/>
<path d="M55.5499 23.415C56.1041 22.2858 56.6583 21.1566 57.2082 20.0274C57.3243 19.7933 57.436 19.5822 57.749 19.5684C58.2674 19.5408 58.3747 19.6189 58.3747 20.1559C58.3792 21.836 58.3702 23.516 58.3836 25.2006C58.3882 25.6046 58.2764 25.7928 57.8473 25.7928C57.3914 25.7928 57.3288 25.5541 57.3332 25.1731C57.3467 24.1678 57.3377 23.1626 57.2349 22.1297C56.9087 22.777 56.5779 23.4196 56.2516 24.0668C56.0192 24.5259 55.7778 24.9757 55.5633 25.4393C55.3621 25.8846 54.9956 25.8019 54.6559 25.7515C54.3207 25.701 54.4056 25.3888 54.4056 25.1685C54.3967 23.5068 54.4056 21.8406 54.3967 20.1789C54.3967 19.8025 54.4503 19.5638 54.9063 19.5592C55.3756 19.5546 55.4649 19.7749 55.456 20.1927C55.4381 21.253 55.4516 22.3179 55.4516 23.3829C55.4918 23.3875 55.5231 23.4012 55.5499 23.415Z" fill="white"/>
<path d="M75.0199 22.621C75.0199 21.781 75.0334 20.941 75.0155 20.101C75.0066 19.7016 75.154 19.5455 75.5429 19.5639C76.0256 19.5868 76.5128 19.5685 77.0001 19.5777C77.6526 19.5914 78.1979 19.8301 78.4482 20.4819C78.6896 21.1154 78.7254 21.7626 78.2068 22.2997C78.028 22.4833 78.0593 22.5843 78.2292 22.7541C78.8326 23.3554 78.7879 24.0899 78.5242 24.806C78.2694 25.4945 77.6928 25.7561 77.0045 25.7745C76.5173 25.7837 76.0346 25.7653 75.5474 25.7837C75.1675 25.7975 75.0066 25.6552 75.0155 25.2466C75.0379 24.3699 75.0199 23.4931 75.0199 22.621ZM76.0614 23.842C76.0614 24.7233 76.0614 24.7233 76.638 24.7279C77.3576 24.7325 77.6348 24.503 77.6392 23.9063C77.6437 23.282 77.3487 23.0204 76.6291 23.0158C76.0703 23.0112 76.0614 23.0204 76.0614 23.842ZM76.0658 21.2852C76.0658 22.0334 76.0882 22.061 76.6514 22.061C77.3084 22.061 77.5498 21.8544 77.5409 21.3082C77.532 20.7849 77.2235 20.5738 76.5754 20.537C75.963 20.5003 76.0703 20.918 76.0658 21.2852Z" fill="white"/>
<path d="M83.0028 22.6805C83.0028 23.1257 83.0206 23.571 82.9983 24.0162C82.9491 25.0445 82.2161 25.7835 81.2238 25.8294C80.2137 25.8799 79.4449 25.2877 79.3109 24.2641C79.1768 23.2267 79.1946 22.171 79.3018 21.1336C79.4091 20.0549 80.1466 19.5178 81.282 19.5545C82.2384 19.5912 82.9267 20.2706 82.9983 21.2896C83.0251 21.7532 83.0028 22.2169 83.0028 22.6805ZM81.948 22.731C81.939 22.731 81.93 22.731 81.9211 22.731C81.9211 22.2674 81.9569 21.8037 81.9121 21.3493C81.863 20.8995 81.6216 20.5965 81.1166 20.6057C80.6159 20.6149 80.3701 20.9132 80.3344 21.3677C80.2629 22.2352 80.2584 23.112 80.3433 23.9795C80.397 24.5349 80.75 24.8287 81.197 24.792C81.635 24.7553 81.9256 24.4064 81.9524 23.8602C81.9613 23.4838 81.948 23.1074 81.948 22.731Z" fill="white"/>
<path d="M61.3468 22.6667C61.3468 21.8267 61.3601 20.9867 61.3423 20.1467C61.3333 19.7427 61.4451 19.5499 61.8786 19.5637C62.7502 19.5866 63.6218 19.5821 64.489 19.5637C64.8509 19.5591 65.003 19.6922 64.9985 20.0686C64.9895 21.7991 64.9895 23.5343 65.003 25.2648C65.0074 25.6917 64.8063 25.7789 64.4442 25.7789C64.0732 25.7789 63.9481 25.6228 63.9481 25.251C63.9615 23.8969 63.9347 22.5428 63.9615 21.1886C63.9704 20.7067 63.8319 20.5185 63.3358 20.5322C62.3837 20.5552 62.3837 20.5322 62.3837 21.5191C62.3837 22.7539 62.3747 23.9887 62.3927 25.2235C62.3971 25.6136 62.2764 25.7835 61.8741 25.7789C61.4942 25.7743 61.3288 25.6458 61.3377 25.2372C61.3601 24.3835 61.3468 23.5251 61.3468 22.6667Z" fill="white"/>
<path d="M39.9194 22.6394C39.9194 21.781 39.9283 20.9272 39.9149 20.0688C39.906 19.6832 40.0714 19.5639 40.4245 19.5593C40.7955 19.5547 40.9921 19.6649 40.9742 20.0826C40.9564 20.6151 40.9787 21.1429 40.9698 21.6754C40.9608 22.0013 41.0905 22.1344 41.4123 22.1344C42.7532 22.1253 42.5252 22.24 42.5431 21.0465C42.5476 20.739 42.5565 20.4269 42.5431 20.1193C42.5252 19.7383 42.6459 19.5547 43.0527 19.5547C43.4639 19.5547 43.6069 19.7016 43.6069 20.1239C43.589 21.8223 43.5935 23.5161 43.6069 25.2145C43.6113 25.6001 43.5041 25.7745 43.0973 25.7791C42.6817 25.7837 42.5252 25.6276 42.5431 25.2053C42.5654 24.6591 42.5386 24.1082 42.5521 23.562C42.561 23.2361 42.4313 23.0984 42.1096 23.103C40.7865 23.1167 40.9966 22.9836 40.9742 24.1909C40.9698 24.5856 40.9698 24.9804 40.9698 25.3752C40.9742 25.7883 40.6927 25.7745 40.4156 25.7745C40.1385 25.7791 39.9194 25.7286 39.9194 25.3614C39.9238 24.4571 39.9194 23.5482 39.9194 22.6394Z" fill="white"/>
<path d="M87.5347 22.6529C87.5347 23.4929 87.5258 24.333 87.5392 25.173C87.5481 25.554 87.4811 25.7835 87.0297 25.7881C86.5514 25.7973 86.4843 25.554 86.4889 25.15C86.5022 23.8326 86.4754 22.5106 86.5022 21.1932C86.5111 20.6791 86.2787 20.6011 85.8586 20.6057C85.4474 20.6057 85.206 20.6654 85.2105 21.1886C85.215 22.2306 85.3133 23.2818 85.1032 24.3146C84.9646 25.0077 84.6652 25.5723 83.9545 25.8064C83.8025 25.8569 83.6103 25.99 83.521 25.7651C83.4271 25.531 83.1813 25.1913 83.4584 25.0215C84.3433 24.4799 84.1959 23.5848 84.2495 22.7769C84.2942 22.0608 84.2182 21.3401 84.2048 20.624C84.2003 20.4037 84.2316 20.1788 84.2495 19.9585C84.2674 19.7152 84.3836 19.5866 84.6339 19.5866C85.4697 19.5866 86.3055 19.5866 87.1414 19.5821C87.4587 19.5775 87.5347 19.7611 87.5302 20.0411C87.5213 20.9132 87.5258 21.79 87.5258 22.6621C87.5302 22.6529 87.5347 22.6529 87.5347 22.6529Z" fill="white"/>
<path d="M35.9101 22.63C35.9101 21.79 35.9235 20.95 35.9057 20.1099C35.8967 19.7106 36.0442 19.5591 36.4375 19.5683C37.2421 19.5866 38.0466 19.5821 38.8512 19.5683C39.1819 19.5637 39.3473 19.6739 39.3563 20.0365C39.3652 20.3808 39.2847 20.6057 38.8959 20.6011C38.4087 20.5965 37.9259 20.6195 37.4387 20.6057C37.0946 20.5965 36.9694 20.7434 36.9605 21.0968C36.9292 22.1388 36.9203 22.1388 37.9394 22.1388C38.1048 22.1388 38.2746 22.1434 38.4399 22.1388C38.7394 22.1296 38.9942 22.1159 38.9897 22.5749C38.9853 23.0156 38.8154 23.1625 38.4176 23.1211C38.2835 23.1074 38.1494 23.1165 38.0153 23.1211C36.8442 23.1487 36.9694 22.8595 36.965 24.3376C36.965 24.6267 37.099 24.7369 37.3672 24.7323C37.8679 24.7277 38.3728 24.7461 38.8735 24.7369C39.2624 24.7277 39.3473 24.9526 39.3517 25.2969C39.3563 25.6458 39.2176 25.7927 38.8735 25.7835C38.0511 25.7697 37.2331 25.7697 36.4106 25.7835C36.0398 25.7881 35.9057 25.632 35.9101 25.2602C35.919 24.3789 35.9101 23.5067 35.9101 22.63Z" fill="white"/>
<path d="M95.3566 22.6208C95.3566 21.7808 95.37 20.9408 95.3522 20.1008C95.3431 19.7014 95.4996 19.5591 95.8885 19.5591C96.2818 19.5591 96.4874 19.6693 96.4696 20.1099C96.4517 20.5185 96.4874 20.9316 96.4606 21.3447C96.4383 21.7762 96.5724 22.0011 97.0238 21.9552C97.14 21.9414 97.2562 21.9552 97.3724 21.969C98.5923 22.1113 99.1554 22.7861 99.0936 24.0392C99.0446 25.1317 98.3648 25.7559 97.1892 25.7743C96.8048 25.7789 96.4204 25.7789 96.036 25.7789C95.37 25.7789 95.3522 25.7559 95.3477 25.0949C95.3477 24.2733 95.3477 23.447 95.3477 22.6254C95.3522 22.6208 95.3522 22.6208 95.3566 22.6208ZM96.4561 23.8556C96.4561 24.7048 96.474 24.7323 97.0551 24.7323C97.7211 24.7323 98.0339 24.4523 98.0339 23.8556C98.0339 23.2956 97.7121 23.011 97.073 23.0064C96.4651 23.0018 96.4561 23.0156 96.4561 23.8556Z" fill="white"/>
<path d="M65.8881 22.6393C65.8881 21.7992 65.8971 20.9592 65.8837 20.1238C65.8748 19.7382 66.0044 19.5546 66.4067 19.573C66.9072 19.5913 67.4123 19.5592 67.9129 19.5822C69.0214 19.6372 69.6562 20.3809 69.6249 21.556C69.5936 22.7127 68.9455 23.3967 67.8549 23.4242C67.7565 23.4288 67.6537 23.4334 67.5554 23.4242C67.1487 23.3783 66.9698 23.5435 66.9922 23.975C67.0146 24.4019 66.9877 24.8288 66.9966 25.2603C67.0056 25.6688 66.809 25.7882 66.438 25.7882C66.067 25.7882 65.8792 25.678 65.8881 25.2603C65.9016 24.3836 65.8881 23.5114 65.8881 22.6393ZM66.9922 21.4963C66.9922 22.3317 67.0146 22.3684 67.6045 22.3684C68.2705 22.3684 68.57 22.0976 68.5789 21.4825C68.5878 20.8904 68.2705 20.6104 67.5912 20.615C67.0146 20.6104 66.9922 20.6425 66.9922 21.4963Z" fill="white"/>
<path d="M48.166 22.6716C48.166 21.8132 48.1794 20.9594 48.1615 20.1011C48.1526 19.6925 48.309 19.5456 48.6935 19.5686C49.279 19.6007 49.8645 19.5135 50.4455 19.6145C51.3529 19.7751 51.8357 20.3948 51.8446 21.3909C51.8579 22.5018 51.3886 23.1903 50.4858 23.3831C50.4053 23.4014 50.3204 23.4106 50.2354 23.4152C49.2164 23.4887 49.2164 23.4887 49.2164 24.5169C49.2164 24.7418 49.1985 24.9667 49.2208 25.1825C49.2745 25.6874 49.0197 25.7976 48.5907 25.7746C48.2599 25.7562 48.1571 25.6048 48.1615 25.2926C48.1749 24.4205 48.166 23.5483 48.166 22.6716ZM49.2208 21.4781C49.2208 22.3503 49.2253 22.3595 49.8019 22.364C50.5349 22.3686 50.7987 22.1299 50.7942 21.4689C50.7897 20.8309 50.5394 20.6106 49.8198 20.6106C49.2297 20.6106 49.2208 20.6198 49.2208 21.4781Z" fill="white"/>
<path d="M45.3542 23.1444C45.3542 22.5431 45.3542 21.9463 45.3542 21.345C45.3542 20.5647 45.3542 20.5371 44.6033 20.5509C44.143 20.5601 44.0089 20.3627 44.0535 19.9358C44.0759 19.7109 44.1608 19.5778 44.3888 19.5778C45.3765 19.5732 46.3643 19.5778 47.3522 19.5732C47.6829 19.5732 47.7186 19.7981 47.7186 20.0597C47.7186 20.326 47.6651 20.5096 47.3432 20.5417C46.4091 20.6335 46.4136 20.6473 46.4136 21.6204C46.4136 22.7496 46.4136 23.8834 46.4136 25.0126C46.4136 25.3844 46.4984 25.7746 45.8996 25.7792C45.2693 25.7884 45.3632 25.3753 45.3632 24.9851C45.3542 24.3792 45.3542 23.7595 45.3542 23.1444Z" fill="white"/>
</g>
<defs>
<clipPath id="clip0_2008_4976">
<rect width="103" height="27" fill="white"/>
</clipPath>
</defs>
</svg>
