<svg width="103" height="27" viewBox="0 0 103 27" fill="none" xmlns="http://www.w3.org/2000/svg">
<g clip-path="url(#clip0_2010_4957)">
<path d="M12.8659 26.9998C11.6782 26.8575 10.4952 26.6693 9.34922 26.3021C8.43525 26.0083 8.41669 26.0221 8.79713 25.1683C11.2746 19.6095 13.7521 14.0553 16.2388 8.50114C16.3084 8.34048 16.3455 8.11097 16.6053 8.13392C16.9069 8.16146 16.8698 8.4231 16.893 8.6113C17.0971 10.3464 17.2873 12.0861 17.4822 13.8212C17.742 16.1393 17.9972 18.4528 18.257 20.7708C18.4379 22.405 18.6096 24.0437 18.7998 25.6778C18.8369 26.0083 18.6328 26.0863 18.3915 26.1736C17.2549 26.5683 16.095 26.8483 14.8887 26.9309C14.7681 26.9401 14.6521 26.9768 14.5361 26.9998C13.9794 26.9998 13.4227 26.9998 12.8659 26.9998Z" fill="white"/>
<path d="M35.831 26.9999C35.8217 26.8989 35.8032 26.7979 35.8032 26.6924C35.7893 25.7284 35.9331 25.7743 34.8196 25.7743C34.1423 25.7743 33.4649 25.7651 32.7875 25.7789C32.4396 25.7835 32.2772 25.6504 32.2818 25.2969C32.2865 23.548 32.2911 21.7991 32.2818 20.0503C32.2772 19.605 32.5416 19.5683 32.8942 19.5637C33.2608 19.5591 33.4417 19.6739 33.4417 20.0594C33.4324 21.4136 33.4556 22.7677 33.4324 24.1218C33.4231 24.5992 33.6041 24.7461 34.0727 24.7415C35.0887 24.7323 35.0887 24.7507 35.0887 23.7362C35.0887 22.5382 35.1026 21.3355 35.0841 20.1375C35.0794 19.7198 35.2233 19.5591 35.6547 19.5591C36.0862 19.5591 36.179 19.7565 36.1743 20.1283C36.1604 21.4641 36.1697 22.8044 36.1697 24.1402C36.1697 24.4202 36.1465 24.7002 36.5362 24.7644C36.7079 24.792 36.7172 24.9481 36.7125 25.0904C36.6986 25.7238 36.6893 26.3573 36.6754 26.9907C36.3878 26.9999 36.1094 26.9999 35.831 26.9999Z" fill="white"/>
<path d="M0.635887 17.5122C0.594131 17.2092 0.821465 17.1312 0.983847 17.0256C3.06697 15.6623 5.15474 14.3036 7.24714 12.9449C9.85917 11.2465 12.4712 9.5527 15.0878 7.8589C15.2595 7.74874 15.4312 7.49627 15.677 7.68906C15.9508 7.9048 15.7188 8.13891 15.6214 8.3317C13.58 12.4032 11.5294 16.4702 9.47873 20.5371C8.75033 21.9785 8.0173 23.4198 7.29354 24.8657C7.16363 25.1274 7.05692 25.3064 6.7136 25.0998C3.80001 23.3418 1.7772 20.8814 0.682281 17.6774C0.663723 17.6131 0.645165 17.5443 0.635887 17.5122Z" fill="white"/>
<path d="M17.4957 8.38654C17.4586 8.13408 17.5746 8.04227 17.7231 7.96424C17.9411 7.84948 18.0803 7.96424 18.2195 8.11113C18.8226 8.74917 19.4304 9.38722 20.0335 10.0253C21.713 11.8109 23.3879 13.5965 25.0627 15.3775C25.5591 15.9054 26.0509 16.4378 26.5566 16.9519C26.7654 17.1631 26.8025 17.3651 26.7097 17.6451C25.6473 20.8399 23.6384 23.2911 20.748 25.0491C20.3304 25.3016 20.2423 25.2511 20.1634 24.7508C19.783 22.4006 19.4072 20.0504 19.0221 17.7002C18.5257 14.6385 18.02 11.5814 17.5189 8.51966C17.5096 8.4554 17.4957 8.38654 17.4957 8.38654Z" fill="white"/>
<path d="M0.00510197 13.6515C0.0190204 10.8652 0.710302 8.49198 2.08359 6.30702C2.29236 5.97193 2.53826 5.8434 2.93261 5.86635C5.91579 6.04078 8.89898 6.20144 11.8822 6.3621C12.7869 6.41259 13.6869 6.44473 14.5916 6.48604C14.8097 6.49522 15.0648 6.45391 15.153 6.74309C15.2504 7.05982 14.9999 7.1608 14.7911 7.28474C10.3279 9.87823 5.86012 12.4718 1.39694 15.0607C1.12785 15.2167 0.849486 15.3636 0.589676 15.5289C0.274191 15.7262 0.144286 15.5977 0.121089 15.281C0.0700546 14.6659 -0.0227349 14.0554 0.00510197 13.6515Z" fill="white"/>
<path d="M84.6661 9.77266C83.9841 11.0809 83.2372 12.357 82.6433 13.7019C82.2629 14.5557 81.7665 14.8954 80.8293 14.7852C80.0684 14.698 80.0591 14.7669 80.0591 13.9957C80.0591 11.1819 80.0591 8.37263 80.0591 5.55881C80.0591 4.83355 80.0638 4.83355 80.7643 4.82896C82.2026 4.81978 82.2026 4.81978 82.2026 6.23357C82.2026 7.56475 82.2026 8.89592 82.2026 10.2868C82.4531 10.0711 82.5227 9.84151 82.6248 9.63036C83.3392 8.18443 84.0676 6.7385 84.7682 5.28339C84.9352 4.94371 85.1533 4.8106 85.5383 4.81978C87.2271 4.86109 86.9766 4.58567 86.9859 6.2198C86.9998 8.84084 86.9766 11.4665 86.9998 14.0875C87.0044 14.5925 86.8606 14.8266 86.3224 14.7715C85.9977 14.7393 85.6636 14.7485 85.3342 14.7669C84.9259 14.7898 84.7821 14.6108 84.7868 14.2206C84.8007 12.9354 84.7914 11.6501 84.7914 10.3648C84.7914 10.1766 84.7914 9.99299 84.7914 9.80479C84.745 9.79561 84.7032 9.78184 84.6661 9.77266Z" fill="white"/>
<path d="M46.6967 9.82794C46.6967 10.4798 46.7152 11.1316 46.692 11.7788C46.641 13.188 45.8105 14.2989 44.544 14.6982C43.1985 15.1205 41.6396 14.712 40.8881 13.7343C40.3963 13.0962 40.206 12.348 40.1921 11.5677C40.1736 10.3513 40.1736 9.13481 40.1921 7.9184C40.2153 6.04557 41.5376 4.74653 43.4212 4.73735C45.3141 4.72817 46.6503 5.99967 46.7013 7.8679C46.7152 8.5289 46.7013 9.18071 46.6967 9.82794C46.7013 9.82794 46.7013 9.82794 46.6967 9.82794ZM44.4883 9.82335C44.4883 9.15317 44.5068 8.48759 44.4836 7.81741C44.4651 7.27117 44.0939 6.88559 43.5975 6.83969C42.9805 6.78001 42.5304 7.07838 42.3912 7.65216C42.3541 7.79905 42.3402 7.95512 42.3402 8.11119C42.3356 9.22662 42.3356 10.3421 42.3402 11.4529C42.3402 11.6228 42.3634 11.7972 42.4098 11.9579C42.5768 12.55 42.9758 12.8254 43.565 12.7657C44.1496 12.7061 44.4744 12.3572 44.4883 11.7283C44.4976 11.0903 44.4883 10.4568 44.4883 9.82335Z" fill="white"/>
<path d="M27.4012 13.578C27.443 13.9957 27.3084 14.5741 27.2899 15.1571C27.2852 15.2718 27.2991 15.4187 27.1599 15.4692C27.0208 15.5243 26.9419 15.3957 26.8584 15.3177C26.4362 14.9321 26.014 14.5511 25.6011 14.161C23.3324 12.0357 21.0683 9.9058 18.8043 7.78052C18.6233 7.61068 18.3635 7.46378 18.5352 7.14246C18.7068 6.82115 18.6558 6.38508 19.2311 6.33C21.0266 6.15098 22.8174 5.91228 24.6082 5.69195C24.8959 5.65523 25.0026 5.8526 25.1279 6.0408C26.6171 8.27625 27.3687 10.7366 27.4012 13.578Z" fill="white"/>
<path d="M12.6196 0.00474669C12.8377 -0.0273851 13.0047 0.105732 13.1393 0.339835C13.9558 1.75822 14.777 3.16743 15.5982 4.58122C15.7002 4.76024 15.8348 4.96222 15.6075 5.13205C15.3013 5.35698 15.3662 5.94453 14.7399 5.86649C11.1582 5.42124 7.56726 5.00353 3.98558 4.57204C3.85568 4.55827 3.67474 4.62254 3.61442 4.45729C3.56339 4.30581 3.72113 4.21859 3.81392 4.12679C5.79962 2.08413 8.2075 0.79886 11.0097 0.225079C11.4319 0.137864 11.868 0.0919614 12.2949 0.0276979C12.383 0.0139272 12.4712 0.0139272 12.6196 0.00474669Z" fill="white"/>
<path d="M65.0368 9.79578C65.0368 8.33608 65.0507 6.88097 65.0275 5.42127C65.0229 4.98061 65.1667 4.81536 65.626 4.81995C67.2081 4.83831 68.7901 4.83372 70.3722 4.81995C70.7619 4.81536 70.9429 4.9347 70.9336 5.34783C70.8965 7.07835 71.1609 6.78916 69.5 6.81212C68.8922 6.8213 68.2844 6.8213 67.6767 6.81212C67.3241 6.80752 67.171 6.959 67.1803 7.30786C67.2127 9.05216 66.9297 8.70789 68.5675 8.74461C69.036 8.75379 69.5046 8.75379 69.9779 8.74461C70.2748 8.73543 70.4232 8.82264 70.414 9.15314C70.3583 11.0351 70.7202 10.6954 68.8876 10.7322C68.4515 10.7413 68.02 10.7413 67.5839 10.7367C67.3009 10.7322 67.171 10.8561 67.1803 11.1407C67.1895 11.4987 67.1895 11.8614 67.1803 12.2194C67.1756 12.605 67.338 12.7748 67.7463 12.7656C68.6139 12.7473 69.4861 12.7748 70.3536 12.7519C70.7758 12.7427 70.9429 12.885 70.9336 13.3165C70.8918 15.0286 71.1795 14.7394 69.4814 14.7624C68.2102 14.7808 66.9436 14.7486 65.6724 14.7762C65.1621 14.7853 65.0136 14.6017 65.0229 14.1152C65.0507 12.6784 65.0368 11.2371 65.0368 9.79578Z" fill="white"/>
<path d="M32.2632 9.75006C32.2632 8.32709 32.2771 6.90411 32.2539 5.48113C32.2446 5.00834 32.3745 4.79719 32.8988 4.81555C33.836 4.85227 34.7731 4.81555 35.7149 4.82932C37.6125 4.85227 38.7724 6.0641 38.7677 8.00118C38.7631 9.84646 37.5336 11.1133 35.7103 11.1547C34.402 11.1822 34.402 11.1822 34.4066 12.4675C34.4066 13.0826 34.3927 13.7022 34.4159 14.3173C34.4298 14.6616 34.286 14.7764 33.9612 14.7672C33.5808 14.7534 33.1957 14.7488 32.8153 14.7672C32.4116 14.7855 32.2585 14.6203 32.2632 14.2255C32.2724 12.7337 32.2632 11.2419 32.2632 9.75006ZM34.402 7.88642C34.402 9.20383 34.4112 9.21301 35.5386 9.15792C36.2392 9.12579 36.6382 8.68054 36.6289 7.93233C36.6196 7.22084 36.267 6.85362 35.5572 6.82149C34.402 6.7664 34.402 6.7664 34.402 7.88642Z" fill="white"/>
<path d="M56.6947 9.54795C56.7411 8.80433 56.602 7.89546 56.8432 6.99577C57.2144 5.63706 58.2861 4.79705 59.78 4.74196C61.311 4.68688 62.5498 5.4764 63.0044 6.78003C63.1158 7.09676 63.0879 7.3125 62.7168 7.39972C62.4987 7.45021 62.276 7.50988 62.0673 7.58792C61.543 7.79448 61.1022 7.95514 60.7821 7.22529C60.5919 6.78003 60.0491 6.72954 59.5805 6.86725C59.1073 7.00955 58.8939 7.37218 58.8939 7.84956C58.8892 9.11647 58.8846 10.388 58.8985 11.6549C58.9031 12.1506 59.0702 12.5729 59.613 12.7244C60.1697 12.8805 60.6847 12.6648 60.9538 12.1093C61.1069 11.7926 61.2832 11.7697 61.5662 11.866C61.9281 11.9854 62.2946 12.1047 62.6657 12.1874C63.0647 12.2746 63.1019 12.4857 62.9951 12.83C62.6565 13.9271 61.492 14.7625 60.1651 14.8359C58.0912 14.9507 56.7458 13.6838 56.6855 11.5493C56.6808 10.948 56.6947 10.3283 56.6947 9.54795Z" fill="white"/>
<path d="M48.6406 9.72214C48.6406 9.05197 48.6267 8.38638 48.6453 7.7162C48.6824 6.21519 49.6984 5.03091 51.1042 4.81976C52.9275 4.54434 54.375 5.29714 54.9132 6.77061C55.0477 7.14242 54.9967 7.35358 54.5699 7.43161C54.3333 7.47292 54.0966 7.54637 53.8693 7.63358C53.3822 7.82637 53.0017 7.91359 52.728 7.27554C52.5331 6.8257 52.0182 6.75225 51.5449 6.85783C51.0578 6.96799 50.8258 7.33521 50.7933 7.79883C50.7562 8.31294 50.7701 8.82704 50.7701 9.34115C50.7701 10.0801 50.7609 10.8146 50.7748 11.5536C50.7887 12.2513 51.0439 12.6186 51.5542 12.7425C52.1202 12.8802 52.5981 12.6553 52.8904 12.0448C53.0017 11.8107 53.1409 11.7877 53.3404 11.8428C53.744 11.953 54.1338 12.1044 54.542 12.1779C55.0245 12.2697 55.0106 12.5267 54.8807 12.8848C54.4075 14.1976 53.0435 14.9917 51.5124 14.8402C49.7448 14.6658 48.7102 13.5871 48.6453 11.829C48.6221 11.1267 48.6453 10.4244 48.6406 9.72214Z" fill="white"/>
<path d="M76.329 10.7274C76.329 11.8749 76.3151 13.0271 76.3336 14.1746C76.3429 14.6199 76.1805 14.8035 75.7259 14.7714C75.415 14.7484 75.0995 14.7438 74.7887 14.7714C74.2923 14.8173 74.116 14.6199 74.1206 14.1287C74.1392 12.1044 74.1299 10.0801 74.1299 8.05585C74.1299 7.78044 74.116 7.50502 74.1299 7.2342C74.1484 6.88534 74.0093 6.72927 73.6427 6.74304C73.2252 6.7614 72.8076 6.73845 72.3901 6.75222C72.121 6.7614 72.0004 6.65583 72.0189 6.38959C72.0236 6.35746 72.0189 6.32074 72.0189 6.28861C72.0514 4.53972 71.7684 4.85645 73.4479 4.8335C74.9093 4.81514 76.3707 4.84268 77.8322 4.82432C78.2822 4.81973 78.4492 4.96662 78.44 5.41646C78.4075 6.98173 78.607 6.72468 77.127 6.74304C76.3244 6.75222 76.3244 6.74763 76.3244 7.53716C76.329 8.5975 76.329 9.66244 76.329 10.7274Z" fill="white"/>
<path d="M14.9904 0.0184002C18.3494 0.362669 21.2166 1.71679 23.5734 4.1129C23.8379 4.37913 23.7683 4.50307 23.4296 4.5811C21.9403 4.92537 20.4557 5.26964 18.9711 5.62768C18.7252 5.68735 18.586 5.62309 18.4468 5.42571C18.0432 4.85193 17.4911 4.5352 16.7673 4.5811C16.54 4.59488 16.4147 4.50307 16.3312 4.3011C15.7791 2.98829 15.2224 1.68007 14.6656 0.367259C14.5125 0.01381 14.726 -0.00455103 14.9904 0.0184002Z" fill="white"/>
<path d="M41.4356 22.6394C41.4356 21.781 41.4449 20.9272 41.431 20.0688C41.4217 19.6832 41.5934 19.5639 41.9599 19.5593C42.345 19.5547 42.5491 19.6649 42.5305 20.0826C42.512 20.6151 42.5352 21.1429 42.5259 21.6754C42.5166 22.0013 42.6512 22.1344 42.9852 22.1344C44.377 22.1253 44.1404 22.24 44.159 21.0465C44.1636 20.739 44.1729 20.4269 44.159 20.1193C44.1404 19.7383 44.2657 19.5547 44.6879 19.5547C45.1147 19.5547 45.2632 19.7016 45.2632 20.1239C45.2446 21.8223 45.2493 23.5161 45.2632 25.2145C45.2678 25.6001 45.1565 25.7745 44.7343 25.7791C44.3028 25.7837 44.1404 25.6276 44.159 25.2053C44.1822 24.6591 44.1543 24.1082 44.1683 23.562C44.1775 23.2361 44.043 23.0984 43.709 23.103C42.3357 23.1167 42.5537 22.9836 42.5305 24.1909C42.5259 24.5856 42.5259 24.9804 42.5259 25.3752C42.5305 25.7883 42.2382 25.7745 41.9506 25.7745C41.6629 25.7791 41.4356 25.7286 41.4356 25.3614C41.4403 24.4571 41.4356 23.5482 41.4356 22.6394Z" fill="white"/>
<path d="M37.274 22.63C37.274 21.79 37.2879 20.95 37.2694 20.1099C37.2601 19.7106 37.4132 19.5591 37.8215 19.5683C38.6566 19.5866 39.4917 19.5821 40.3268 19.5683C40.6701 19.5637 40.8418 19.6739 40.851 20.0365C40.8603 20.3808 40.7768 20.6057 40.3732 20.6011C39.8675 20.5965 39.3664 20.6195 38.8607 20.6057C38.5035 20.5965 38.3736 20.7434 38.3643 21.0968C38.3318 22.1388 38.3225 22.1388 39.3803 22.1388C39.552 22.1388 39.7283 22.1434 39.8999 22.1388C40.2108 22.1296 40.4752 22.1159 40.4706 22.5749C40.466 23.0156 40.2897 23.1624 39.8767 23.1211C39.7376 23.1074 39.5984 23.1165 39.4592 23.1211C38.2437 23.1487 38.3736 22.8595 38.3689 24.3376C38.3689 24.6267 38.5081 24.7369 38.7865 24.7323C39.3061 24.7277 39.8304 24.7461 40.35 24.7369C40.7536 24.7277 40.8418 24.9526 40.8464 25.2969C40.851 25.6458 40.7072 25.7927 40.35 25.7835C39.4963 25.7697 38.6473 25.7697 37.7936 25.7835C37.4085 25.7881 37.2694 25.632 37.274 25.2602C37.2833 24.3789 37.274 23.5067 37.274 22.63Z" fill="white"/>
<path d="M49.9952 22.6716C49.9952 21.8132 50.0092 20.9594 49.9906 20.1011C49.9813 19.6925 50.1437 19.5456 50.5427 19.5686C51.1505 19.6007 51.7582 19.5135 52.3614 19.6145C53.3032 19.7751 53.8042 20.3948 53.8135 21.3909C53.8274 22.5018 53.3403 23.1903 52.4031 23.3831C52.3196 23.4014 52.2315 23.4106 52.1433 23.4152C51.0855 23.4887 51.0855 23.4887 51.0855 24.5169C51.0855 24.7418 51.067 24.9667 51.0902 25.1825C51.1458 25.6874 50.8814 25.7976 50.436 25.7746C50.0927 25.7562 49.986 25.6048 49.9906 25.2926C50.0045 24.4205 49.9952 23.5483 49.9952 22.6716ZM51.0902 21.4781C51.0902 22.3503 51.0948 22.3595 51.6933 22.364C52.4542 22.3686 52.7279 22.1299 52.7233 21.4689C52.7186 20.8309 52.4588 20.6106 51.7118 20.6106C51.0994 20.6106 51.0902 20.6198 51.0902 21.4781Z" fill="white"/>
<path d="M47.0773 23.1444C47.0773 22.5431 47.0773 21.9463 47.0773 21.345C47.0773 20.5647 47.0773 20.5371 46.2979 20.5509C45.82 20.5601 45.6808 20.3627 45.7272 19.9358C45.7504 19.7109 45.8386 19.5778 46.0752 19.5778C47.1005 19.5732 48.1258 19.5778 49.1512 19.5732C49.4945 19.5732 49.5316 19.7981 49.5316 20.0597C49.5316 20.326 49.4759 20.5096 49.1419 20.5417C48.1722 20.6335 48.1769 20.6473 48.1769 21.6204C48.1769 22.7496 48.1769 23.8834 48.1769 25.0126C48.1769 25.3844 48.265 25.7746 47.6433 25.7792C46.9892 25.7884 47.0866 25.3753 47.0866 24.9851C47.0773 24.3792 47.0773 23.7595 47.0773 23.1444Z" fill="white"/>
</g>
<defs>
<clipPath id="clip0_2010_4957">
<rect width="87" height="27" fill="white"/>
</clipPath>
</defs>
</svg>
