<svg width="20" height="21" viewBox="0 0 20 21" fill="none" xmlns="http://www.w3.org/2000/svg">
<path d="M11.6667 4.86662C11.2064 4.86662 10.8333 4.49352 10.8333 4.03328C10.8333 3.57305 11.2064 3.19995 11.6667 3.19995H16.6667C16.8877 3.19995 17.0996 3.28775 17.2559 3.44403C17.4122 3.60031 17.5 3.81227 17.5 4.03328L17.5 9.03329C17.5 9.49352 17.1269 9.86662 16.6667 9.86662C16.2064 9.86662 15.8333 9.49352 15.8333 9.03328L15.8333 6.04513L8.08926 13.7892C7.76382 14.1146 7.23618 14.1146 6.91074 13.7892C6.58531 13.4638 6.58531 12.9361 6.91074 12.6107L14.6548 4.86662H11.6667ZM2.5 6.53328C2.5 5.61281 3.24619 4.86662 4.16667 4.86662H8.33333C8.79357 4.86662 9.16667 5.23971 9.16667 5.69995C9.16667 6.16019 8.79357 6.53328 8.33333 6.53328H4.16667V16.5333H14.1667V12.3666C14.1667 11.9064 14.5398 11.5333 15 11.5333C15.4602 11.5333 15.8333 11.9064 15.8333 12.3666V16.5333C15.8333 17.4538 15.0871 18.2 14.1667 18.2H4.16667C3.24619 18.2 2.5 17.4538 2.5 16.5333V6.53328Z" fill="white"/>
</svg>
