<svg xmlns="http://www.w3.org/2000/svg" xmlns:xlink="http://www.w3.org/1999/xlink"><defs><style>
    .sprite-symbol-usage {display: none;}
    .sprite-symbol-usage:target {display: inline;}
  </style><symbol viewBox="0 0 10 10" id="icon-arrow">
<path fill-rule="evenodd" clip-rule="evenodd" d="M4.65373 0.639307C4.85294 0.44807 5.16946 0.454529 5.36069 0.653735L9.25259 4.70779C9.43833 4.90127 9.43833 5.20684 9.25259 5.40032L5.36069 9.45438C5.16946 9.65358 4.85294 9.66004 4.65373 9.4688C4.45453 9.27757 4.44807 8.96105 4.63931 8.76184L7.71878 5.55405H1C0.723858 5.55405 0.5 5.3302 0.5 5.05405C0.5 4.77791 0.723858 4.55405 1 4.55405H7.71878L4.63931 1.34627C4.44807 1.14706 4.45453 0.830544 4.65373 0.639307Z" />
</symbol><symbol viewBox="0 0 10 12" fill="none" id="icon-arrow-bold">
<path id="icon-arrow-bold_Vector 1" d="M1.05371 6.0001H8.9456M8.9456 6.0001L5.05371 1.94604M8.9456 6.0001L5.05371 10.0542" stroke="white" stroke-width="2" stroke-linecap="round" stroke-linejoin="round" />
</symbol><symbol viewBox="0 0 14 9" fill="none" id="icon-arrow-empty">
<path d="M13.7074 7.79303C13.5199 7.9805 13.2656 8.08582 13.0004 8.08582C12.7352 8.08582 12.4809 7.9805 12.2934 7.79303L7.70741 3.20703C7.51728 3.02454 7.26395 2.92264 7.00041 2.92264C6.73687 2.92264 6.48354 3.02454 6.29341 3.20703L1.70741 7.79303C1.5188 7.97519 1.2662 8.07598 1.00401 8.0737C0.741809 8.07142 0.490997 7.96626 0.305589 7.78085C0.120181 7.59544 0.0150115 7.34463 0.0127331 7.08243C0.0104547 6.82023 0.111249 6.56763 0.293408 6.37903L4.87841 1.79303C5.15699 1.5144 5.48773 1.29338 5.85174 1.14258C6.21575 0.991784 6.6059 0.91417 6.99991 0.91417C7.39392 0.91417 7.78407 0.991784 8.14808 1.14258C8.51208 1.29338 8.84283 1.5144 9.12141 1.79303L13.7074 6.37903C13.8949 6.56656 14.0002 6.82087 14.0002 7.08603C14.0002 7.35119 13.8949 7.6055 13.7074 7.79303V7.79303Z" fill="white" />
</symbol><symbol viewBox="0 0 8 6" id="icon-arrow-min">
<path d="M4.43301 5.25C4.24056 5.58333 3.75944 5.58333 3.56699 5.25L0.968911 0.75C0.776461 0.416666 1.01702 0 1.40192 0L6.59808 0C6.98298 0 7.22354 0.416667 7.03109 0.75L4.43301 5.25Z" />
</symbol><symbol viewBox="0 0 16 16" fill="none" id="icon-arrow-small">
<path d="M6 12L10 8L6 4" stroke="white" stroke-width="2" stroke-linecap="round" stroke-linejoin="round" />
</symbol><symbol viewBox="0 0 11 14" id="icon-bulb">
<path fill-rule="evenodd" clip-rule="evenodd" d="M7.33333 12C7.70152 12 8 12.2985 8 12.6667C8 13.0349 7.70152 13.3333 7.33333 13.3333H3.33333C2.96514 13.3333 2.66667 13.0349 2.66667 12.6667C2.66667 12.2985 2.96514 12 3.33333 12H7.33333ZM5.33311 0C8.47506 0 10.6667 1.89412 10.6667 4.91908C10.6667 6.15297 10.2109 7.17505 9.3421 8.29952L9.1845 8.49909C9.04504 8.67206 8.515 9.2943 8.33644 9.51441L8.23522 9.64488C8.09483 9.83323 8.02197 9.96292 8.00263 10.0312L7.98628 10.1348C7.92339 10.4409 7.65291 10.6667 7.33333 10.6667H3.33333C3.01376 10.6667 2.74328 10.4409 2.68039 10.1348L2.66403 10.0312C2.6447 9.96291 2.57183 9.8332 2.43144 9.64484L2.33022 9.51438L1.48215 8.49901L1.32457 8.29945C0.455829 7.17501 0 6.15296 0 4.91912C0 1.89419 2.19154 0 5.33311 0ZM5.33311 1.33333C2.88824 1.33333 1.33333 2.67727 1.33333 4.91912C1.33333 5.80022 1.67516 6.57032 2.37533 7.47857L2.52014 7.66213C2.63253 7.80153 3.093 8.34265 3.32074 8.61958L3.41839 8.74043C3.58641 8.95582 3.7177 9.14825 3.81292 9.33333H6.85375L6.91522 9.22128C7.00296 9.07037 7.11387 8.91275 7.24828 8.74045L7.62975 8.27928C7.84199 8.02657 8.07161 7.75511 8.14653 7.66219L8.29136 7.47862C8.99156 6.57036 9.33333 5.80026 9.33333 4.91912C9.33333 2.67722 7.77838 1.33333 5.33311 1.33333Z" />
</symbol><symbol viewBox="0 0 24 24" fill="none" id="icon-chevrone">
<path d="M11.9998 15.7131L18.0098 9.70209L16.5958 8.28809L11.9958 12.8881L7.40277 8.28809L5.98877 9.70209L11.9998 15.7131Z" fill="#060614" />
</symbol><symbol viewBox="0 0 14 14" fill="none" id="icon-close">
<path d="M14 1.415L12.585 0L7 5.585L1.415 0L0 1.415L5.585 7L0 12.585L1.415 14L7 8.415L12.585 14L14 12.585L8.415 7L14 1.415Z" fill="white" />
</symbol><symbol viewBox="0 0 16 14" id="icon-connection">
<path fill-rule="evenodd" clip-rule="evenodd" d="M10.2763 1.58995C10.3238 1.53296 10.3942 1.5 10.4684 1.5H11.25C11.3881 1.5 11.5 1.61193 11.5 1.75V3.25V8.75V10.25C11.5 10.3881 11.3881 10.5 11.25 10.5H10.4684C10.3942 10.5 10.3238 10.467 10.2763 10.41L9.32617 9.2699C9.20442 9.1238 9.03173 9.0294 8.84303 9.0058L5.71899 8.6153C5.59388 8.5996 5.5 8.4933 5.5 8.36722V5.75V3.63278C5.5 3.5067 5.59388 3.40035 5.71899 3.38471L8.84303 2.99421C9.03173 2.97062 9.20442 2.87623 9.32617 2.73014L10.2763 1.58995ZM4 6.5V8.36722C4 9.2498 4.65719 9.9942 5.53294 10.1037L8.3633 10.4575L9.12399 11.3703C9.45648 11.7693 9.94901 12 10.4684 12H11.25C12.2165 12 13 11.2165 13 10.25V9.5H15.25C15.6642 9.5 16 9.1642 16 8.75C16 8.33579 15.6642 8 15.25 8H13V4H15.25C15.6642 4 16 3.66421 16 3.25C16 2.83579 15.6642 2.5 15.25 2.5H13V1.75C13 0.7835 12.2165 0 11.25 0H10.4684C9.94901 0 9.45648 0.23069 9.12399 0.62968L8.3633 1.5425L5.53294 1.8963C4.65719 2.00576 4 2.75022 4 3.63278V5H2.5C1.11929 5 0 6.11929 0 7.5V12.75C0 13.1642 0.335786 13.5 0.75 13.5C1.16421 13.5 1.5 13.1642 1.5 12.75V7.5C1.5 6.94772 1.94772 6.5 2.5 6.5H4Z" />
</symbol><symbol viewBox="0 0 16 20" fill="none" id="icon-doc">
<path d="M15.5 7.29161V18.1186C15.5008 18.2372 15.48 18.3547 15.4388 18.4646C15.3976 18.5744 15.3369 18.6744 15.2601 18.7588C15.1832 18.8433 15.0918 18.9105 14.991 18.9566C14.8902 19.0027 14.7819 19.0269 14.6725 19.0277H1.3275C1.10818 19.0277 0.897826 18.9334 0.742664 18.7655C0.587501 18.5976 0.500221 18.3698 0.5 18.1322V1.86772C0.5 1.38293 0.8725 0.972168 1.33167 0.972168H9.66667V6.38883C9.66667 6.62827 9.75447 6.85789 9.91074 7.02719C10.067 7.1965 10.279 7.29161 10.5 7.29161H15.5ZM15.5 5.48606H11.3333V0.974876L15.5 5.48606Z" fill="#2034E9" />
</symbol><symbol viewBox="0 0 20 21" fill="none" id="icon-external">
<path d="M11.6667 4.86662C11.2064 4.86662 10.8333 4.49352 10.8333 4.03328C10.8333 3.57305 11.2064 3.19995 11.6667 3.19995H16.6667C16.8877 3.19995 17.0996 3.28775 17.2559 3.44403C17.4122 3.60031 17.5 3.81227 17.5 4.03328L17.5 9.03329C17.5 9.49352 17.1269 9.86662 16.6667 9.86662C16.2064 9.86662 15.8333 9.49352 15.8333 9.03328L15.8333 6.04513L8.08926 13.7892C7.76382 14.1146 7.23618 14.1146 6.91074 13.7892C6.58531 13.4638 6.58531 12.9361 6.91074 12.6107L14.6548 4.86662H11.6667ZM2.5 6.53328C2.5 5.61281 3.24619 4.86662 4.16667 4.86662H8.33333C8.79357 4.86662 9.16667 5.23971 9.16667 5.69995C9.16667 6.16019 8.79357 6.53328 8.33333 6.53328H4.16667V16.5333H14.1667V12.3666C14.1667 11.9064 14.5398 11.5333 15 11.5333C15.4602 11.5333 15.8333 11.9064 15.8333 12.3666V16.5333C15.8333 17.4538 15.0871 18.2 14.1667 18.2H4.16667C3.24619 18.2 2.5 17.4538 2.5 16.5333V6.53328Z" fill="white" />
</symbol><symbol viewBox="0 0 20 20" fill="none" id="icon-fax">
<g clip-path="url(#icon-fax_clip0_499_4123)">
<path d="M20 7.5C20 6.83696 19.7366 6.20107 19.2678 5.73223C18.7989 5.26339 18.163 5 17.5 5H15.8333V0H4.16667V5H2.5C1.83696 5 1.20107 5.26339 0.732233 5.73223C0.263392 6.20107 0 6.83696 0 7.5L0 17.5H4.16667V20H15.8333V17.5H20V7.5ZM5.83333 1.66667H14.1667V5H5.83333V1.66667ZM14.1667 18.3333H5.83333V13.3333H14.1667V18.3333ZM18.3333 15.8333H15.8333V11.6667H4.16667V15.8333H1.66667V7.5C1.66667 7.27899 1.75446 7.06702 1.91074 6.91074C2.06702 6.75446 2.27899 6.66667 2.5 6.66667H17.5C17.721 6.66667 17.933 6.75446 18.0893 6.91074C18.2455 7.06702 18.3333 7.27899 18.3333 7.5V15.8333Z" fill="#2034E9" />
<path d="M15.8333 8.33325H12.5V9.99992H15.8333V8.33325Z" fill="#2034E9" />
</g>
<defs>

</defs>
</symbol><clipPath id="icon-fax_clip0_499_4123">
<rect width="20" height="20" fill="white" />
</clipPath><symbol viewBox="0 0 25 25" fill="none" id="icon-filter">
<path d="M22.5 3.5H2.5L10.5 12.96V19.5L14.5 21.5V12.96L22.5 3.5Z" stroke="white" stroke-width="2" stroke-linecap="round" stroke-linejoin="round" />
</symbol><symbol viewBox="0 0 18 18" fill="none" id="icon-hint">
<path fill-rule="evenodd" clip-rule="evenodd" d="M9.00008 17.3333C13.6025 17.3333 17.3334 13.6023 17.3334 8.99996C17.3334 4.39759 13.6025 0.666626 9.00008 0.666626C4.39771 0.666626 0.666748 4.39759 0.666748 8.99996C0.666748 13.6023 4.39771 17.3333 9.00008 17.3333Z" fill="#242830" />
<path fill-rule="evenodd" clip-rule="evenodd" d="M9 6.5C9.46021 6.5 9.8335 6.12695 9.8335 5.66675C9.8335 5.20642 9.46021 4.83337 9 4.83337C8.53979 4.83337 8.16675 5.20642 8.16675 5.66675C8.16675 6.12695 8.53979 6.5 9 6.5ZM10 9C10 8.44775 9.55225 8 9 8C8.44775 8 8 8.44775 8 9V12.3334C8 12.8856 8.44775 13.3334 9 13.3334C9.55225 13.3334 10 12.8856 10 12.3334V9Z" fill="white" />
</symbol><symbol viewBox="0 0 13 16" id="icon-lightning">
<path fill-rule="evenodd" clip-rule="evenodd" d="M8.85221 1.49822C8.84852 1.49836 8.84498 1.49977 8.84221 1.50222L1.57721 8.56922C1.54152 8.60401 1.51705 8.64868 1.50694 8.69748C1.49682 8.74629 1.50152 8.797 1.52044 8.84311C1.53936 8.88922 1.57163 8.92863 1.6131 8.95627C1.65458 8.9839 1.70337 8.99851 1.75321 8.99822H5.04121C5.16426 8.99824 5.28541 9.02854 5.39399 9.08645C5.50256 9.14435 5.59522 9.22808 5.6638 9.33025C5.73237 9.43242 5.77476 9.54989 5.78721 9.67231C5.79966 9.79473 5.78181 9.91833 5.73521 10.0322L4.02221 14.2202L11.0042 7.42722C11.0398 7.39248 11.0643 7.34791 11.0744 7.2992C11.0846 7.25049 11.08 7.19986 11.0612 7.15379C11.0424 7.10772 11.0103 7.06831 10.9689 7.04059C10.9276 7.01288 10.879 6.99812 10.8292 6.99822H7.54121C7.41575 6.99823 7.29228 6.96677 7.18213 6.90671C7.07197 6.84665 6.97864 6.75992 6.91069 6.65445C6.84273 6.54898 6.80232 6.42815 6.79315 6.30302C6.78398 6.17789 6.80635 6.05246 6.85821 5.93822L8.86621 1.52022L8.86921 1.51422C8.86865 1.51093 8.86727 1.50784 8.86521 1.50522C8.86366 1.50281 8.86162 1.50077 8.85921 1.49922L8.85121 1.49822H8.85221ZM7.79521 0.428219C8.04851 0.182334 8.37969 0.0325568 8.7316 0.00472186C9.08352 -0.0231131 9.43412 0.0727394 9.72293 0.275746C10.0117 0.478753 10.2206 0.776186 10.3136 1.11674C10.4066 1.4573 10.3778 1.81962 10.2322 2.14122L8.70621 5.49822H10.8292C12.3992 5.49822 13.1752 7.40722 12.0492 8.50222L4.70921 15.6442C4.47601 15.8711 4.16355 15.9981 3.83821 15.9982H3.53621C3.33114 15.9982 3.12922 15.9477 2.94826 15.8513C2.7673 15.7548 2.61284 15.6153 2.49852 15.4451C2.3842 15.2748 2.31352 15.0791 2.29271 14.875C2.27191 14.671 2.30161 14.465 2.37921 14.2752L3.92421 10.4982H1.75321C0.183211 10.4982 -0.592789 8.58922 0.533211 7.49422L7.79421 0.427219L7.79521 0.428219Z" />
</symbol><symbol viewBox="0 0 15 16" id="icon-list">
<path fill-rule="evenodd" clip-rule="evenodd" d="M1.5 1.75C1.5 1.61193 1.61193 1.5 1.75 1.5H10.25C10.3881 1.5 10.5 1.61193 10.5 1.75V9.48645C10.5 9.90067 10.8358 10.2365 11.25 10.2365C11.6642 10.2365 12 9.90067 12 9.48645V1.75C12 0.783502 11.2165 0 10.25 0H1.75C0.7835 0 0 0.783502 0 1.75V13.25C0 14.2165 0.7835 15 1.75 15H4.92083C5.33504 15 5.67083 14.6642 5.67083 14.25C5.67083 13.8358 5.33504 13.5 4.92083 13.5H1.75C1.61193 13.5 1.5 13.3881 1.5 13.25V1.75ZM3.75 4C3.33579 4 3 4.33579 3 4.75C3 5.16421 3.33579 5.5 3.75 5.5H8.25C8.66421 5.5 9 5.16421 9 4.75C9 4.33579 8.66421 4 8.25 4H3.75ZM3 7.75C3 7.33579 3.33579 7 3.75 7H5.75C6.16421 7 6.5 7.33579 6.5 7.75C6.5 8.16421 6.16421 8.5 5.75 8.5H3.75C3.33579 8.5 3 8.16421 3 7.75ZM14.774 11.2866C15.0703 10.9972 15.076 10.5223 14.7866 10.226C14.4972 9.92965 14.0223 9.92402 13.726 10.2134L9.7003 14.1447L8.28127 12.7206C7.98889 12.4272 7.51402 12.4264 7.22061 12.7187C6.9272 13.0111 6.92636 13.486 7.21873 13.7794L9.1618 15.7294C9.4521 16.0207 9.9229 16.0239 10.2171 15.7366L14.774 11.2866Z" />
</symbol><symbol viewBox="0 0 16 19" id="icon-location">
<path d="M13.3033 13.47L8 18.7733L2.69667 13.47C1.64779 12.4211 0.933489 11.0847 0.644107 9.62989C0.354725 8.17504 0.503256 6.66704 1.07092 5.2966C1.63858 3.92616 2.59987 2.75483 3.83324 1.93072C5.0666 1.10661 6.51665 0.666748 8 0.666748C9.48336 0.666748 10.9334 1.10661 12.1668 1.93072C13.4001 2.75483 14.3614 3.92616 14.9291 5.2966C15.4968 6.66704 15.6453 8.17504 15.3559 9.62989C15.0665 11.0847 14.3522 12.4211 13.3033 13.47ZM8 9.83335C8.44203 9.83335 8.86595 9.65775 9.17851 9.34519C9.49108 9.03263 9.66667 8.60871 9.66667 8.16668C9.66667 7.72466 9.49108 7.30073 9.17851 6.98817C8.86595 6.67561 8.44203 6.50002 8 6.50002C7.55798 6.50002 7.13405 6.67561 6.82149 6.98817C6.50893 7.30073 6.33334 7.72466 6.33334 8.16668C6.33334 8.60871 6.50893 9.03263 6.82149 9.34519C7.13405 9.65775 7.55798 9.83335 8 9.83335Z" />
</symbol><symbol viewBox="0 0 17 14" id="icon-lorry">
<path fill-rule="evenodd" clip-rule="evenodd" d="M1 0.5C0.723858 0.5 0.5 0.723858 0.5 1V9.66667C0.5 9.94281 0.723858 10.1667 1 10.1667H2.17359C1.958 10.5034 1.83301 10.9038 1.83301 11.3333C1.83301 12.5299 2.80306 13.5 3.99967 13.5C5.19629 13.5 6.16634 12.5299 6.16634 11.3333C6.16634 10.9038 6.04135 10.5034 5.82576 10.1667H10.8406C10.625 10.5034 10.5 10.9038 10.5 11.3333C10.5 12.5299 11.47 13.5 12.6667 13.5C13.8633 13.5 14.8333 12.5299 14.8333 11.3333C14.8333 10.9038 14.7084 10.5035 14.4928 10.1667H15.6667C15.9428 10.1667 16.1667 9.94285 16.1667 9.66671V6.33337C16.1667 6.20077 16.114 6.07359 16.0202 5.97982L14.0202 3.97982C13.9265 3.88605 13.7993 3.83337 13.6667 3.83337H11.5V1C11.5 0.723858 11.2761 0.5 11 0.5H1ZM11.5 4.83337V9.16671H12.6476L12.6667 9.16663L12.6857 9.16671H15.1667V6.54048L13.4596 4.83337H11.5ZM10.5 4.33337V1.5H1.5V9.16667H3.9862C3.99069 9.16664 3.99518 9.16663 3.99967 9.16663C4.00417 9.16663 4.00866 9.16664 4.01315 9.16667H10.5V4.33337ZM3.98979 10.1667H4.00956C4.64934 10.172 5.16634 10.6923 5.16634 11.3333C5.16634 11.9776 4.64401 12.5 3.99967 12.5C3.35534 12.5 2.83301 11.9776 2.83301 11.3333C2.83301 10.6923 3.35001 10.172 3.98979 10.1667ZM13.8333 11.3333C13.8333 10.6936 13.3185 10.1742 12.6806 10.1667H12.6527C12.0148 10.1742 11.5 10.6936 11.5 11.3333C11.5 11.9776 12.0223 12.5 12.6667 12.5C13.311 12.5 13.8333 11.9776 13.8333 11.3333Z" />
</symbol><symbol viewBox="0 0 18 16" fill="none" id="icon-mail">
<path d="M1.49996 0.5H16.5C16.721 0.5 16.9329 0.587797 17.0892 0.744078C17.2455 0.900358 17.3333 1.11232 17.3333 1.33333V14.6667C17.3333 14.8877 17.2455 15.0996 17.0892 15.2559C16.9329 15.4122 16.721 15.5 16.5 15.5H1.49996C1.27895 15.5 1.06698 15.4122 0.910704 15.2559C0.754423 15.0996 0.666626 14.8877 0.666626 14.6667V1.33333C0.666626 1.11232 0.754423 0.900358 0.910704 0.744078C1.06698 0.587797 1.27895 0.5 1.49996 0.5ZM9.04996 7.73583L3.70663 3.19833L2.62746 4.46833L9.06079 9.93083L15.3783 4.46417L14.2883 3.20333L9.05079 7.73583H9.04996Z" fill="#2034E9" />
</symbol><symbol viewBox="0 0 16 16" fill="none" id="icon-menu-service">
<path fill-rule="evenodd" clip-rule="evenodd" d="M12.6667 0H15.3333C15.7013 0 16 0.298667 16 0.666667V3.33333C16 3.70133 15.7013 4 15.3333 4H12.6667C12.2987 4 12 3.70133 12 3.33333V0.666667C12 0.298667 12.2987 0 12.6667 0ZM15.3333 6H12.6667C12.2987 6 12 6.29867 12 6.66667V9.33333C12 9.70133 12.2987 10 12.6667 10H15.3333C15.7013 10 16 9.70133 16 9.33333V6.66667C16 6.29867 15.7013 6 15.3333 6ZM15.3333 12H12.6667C12.2987 12 12 12.2987 12 12.6667V15.3333C12 15.7013 12.2987 16 12.6667 16H15.3333C15.7013 16 16 15.7013 16 15.3333V12.6667C16 12.2987 15.7013 12 15.3333 12ZM9.33333 12H6.66667C6.29867 12 6 12.2987 6 12.6667V15.3333C6 15.7013 6.29867 16 6.66667 16H9.33333C9.70133 16 10 15.7013 10 15.3333V12.6667C10 12.2987 9.70133 12 9.33333 12ZM6.66667 6H9.33333C9.70133 6 10 6.29867 10 6.66667V9.33333C10 9.70133 9.70133 10 9.33333 10H6.66667C6.29867 10 6 9.70133 6 9.33333V6.66667C6 6.29867 6.29867 6 6.66667 6ZM9.33333 0H6.66667C6.29867 0 6 0.298667 6 0.666667V3.33333C6 3.70133 6.29867 4 6.66667 4H9.33333C9.70133 4 10 3.70133 10 3.33333V0.666667C10 0.298667 9.70133 0 9.33333 0ZM0.666667 12H3.33333C3.70133 12 4 12.2987 4 12.6667V15.3333C4 15.7013 3.70133 16 3.33333 16H0.666667C0.298667 16 0 15.7013 0 15.3333V12.6667C0 12.2987 0.298667 12 0.666667 12ZM3.33333 6H0.666667C0.298667 6 0 6.29867 0 6.66667V9.33333C0 9.70133 0.298667 10 0.666667 10H3.33333C3.70133 10 4 9.70133 4 9.33333V6.66667C4 6.29867 3.70133 6 3.33333 6ZM0.666667 0H3.33333C3.70133 0 4 0.298667 4 0.666667V3.33333C4 3.70133 3.70133 4 3.33333 4H0.666667C0.298667 4 0 3.70133 0 3.33333V0.666667C0 0.298667 0.298667 0 0.666667 0Z" fill="white" />
</symbol><symbol viewBox="0 0 24 28" fill="none" id="icon-pdf">
<g id="icon-pdf_Group">
<path id="icon-pdf_Vector" d="M4.8 3.07942e-07C3.52696 3.07942e-07 2.30606 0.421428 1.40589 1.17157C0.505713 1.92172 0 2.93913 0 4V24C0 25.0609 0.505713 26.0783 1.40589 26.8284C2.30606 27.5786 3.52696 28 4.8 28H19.2C20.473 28 21.6939 27.5786 22.5941 26.8284C23.4943 26.0783 24 25.0609 24 24V8.828C23.9992 8.03262 23.6193 7.27007 22.944 6.708L15.9528 0.878C15.6183 0.599466 15.2213 0.378567 14.7844 0.227918C14.3475 0.0772688 13.8792 -0.000178218 13.4064 3.07942e-07H4.8ZM2.4 4C2.4 3.46957 2.65286 2.96086 3.10294 2.58579C3.55303 2.21071 4.16348 2 4.8 2H12V7C12 7.79565 12.3793 8.55871 13.0544 9.12132C13.7295 9.68393 14.6452 10 15.6 10H21.6V24C21.6 24.5304 21.3471 25.0391 20.8971 25.4142C20.447 25.7893 19.8365 26 19.2 26H4.8C4.16348 26 3.55303 25.7893 3.10294 25.4142C2.65286 25.0391 2.4 24.5304 2.4 24V4ZM21.1032 8H15.6C15.2817 8 14.9765 7.89464 14.7515 7.70711C14.5264 7.51957 14.4 7.26522 14.4 7V2.414L21.1032 8Z" fill="#2034E9" />
</g>
</symbol><symbol viewBox="0 0 11 14" id="icon-pillar">
<path d="M2.78667 2.3L1.6 1.7L2.44 0H8.08667L8.93333 1.7L7.74667 2.29333L7.26667 1.33333H3.26667L2.78667 2.3ZM9.68 4H6.66L6.13333 2H4.4L3.87333 4H0.853333L0 5.7L1.19333 6.29333L1.68 5.33333H8.85333L9.33333 6.3L10.5267 5.70667L9.68 4ZM9.11333 13.3333H7.73333L7.57333 12.7333L5.26667 9.26667L2.95333 12.7333L2.8 13.3333H1.42L3.34667 6H4.72667L4.48667 6.9L5.26667 8.06667L6.04 6.9L5.80667 6H7.18667L9.11333 13.3333ZM4.86667 8.66667L4.26667 7.76667L3.48 10.7533L4.86667 8.66667ZM7.05333 10.7467L6.26667 7.76L5.66667 8.66667L7.05333 10.7467Z" />
</symbol><symbol viewBox="0 0 22 22" fill="none" id="icon-refresh">
<g id="icon-refresh_basic / refresh">
<path id="icon-refresh_coolicon" d="M10.9951 3.66651C7.18288 3.66129 4.00245 6.57783 3.67827 10.3762C3.35408 14.1746 5.99428 17.5879 9.75224 18.2288C13.5102 18.8697 17.1324 16.5243 18.0855 12.8332H16.1779C15.2455 15.4705 12.4819 16.9879 9.75619 16.3591C7.03042 15.7303 5.21083 13.1557 5.52792 10.3764C5.845 7.5971 8.19774 5.49852 10.9951 5.49984C12.4522 5.50198 13.8472 6.08998 14.8662 7.13152L11.9163 10.0832H18.333V3.66651L16.1779 5.82068C14.8063 4.44075 12.9407 3.66534 10.9951 3.66651Z" fill="white" />
</g>
</symbol><symbol viewBox="0 0 20 20" fill="none" id="icon-search">
<path d="M11.4471 17.605C9.54939 17.6046 7.70642 16.9694 6.21158 15.8004L1.51173 20.5L-5.57979e-07 18.9883L4.69984 14.2888C3.53023 12.7938 2.89456 10.9505 2.8941 9.05249C2.8941 4.33686 6.73117 0.5 11.4471 0.5C16.1629 0.5 20 4.33686 20 9.05249C20 13.7681 16.1629 17.605 11.4471 17.605ZM11.4471 2.63812C7.90934 2.63812 5.03234 5.51497 5.03234 9.05249C5.03234 12.59 7.90934 15.4669 11.4471 15.4669C14.9848 15.4669 17.8618 12.59 17.8618 9.05249C17.8618 5.51497 14.9848 2.63812 11.4471 2.63812Z" fill="#909CB5" fill-opacity="0.7" />
</symbol><symbol viewBox="0 0 78 78" fill="none" id="icon-success">
<path fill-rule="evenodd" clip-rule="evenodd" d="M38.9997 68.64C57.9541 68.64 73.3197 53.2744 73.3197 34.32C73.3197 15.3656 57.9541 0 38.9997 0C20.0453 0 4.67969 15.3656 4.67969 34.32C4.67969 44.9926 9.55126 54.5274 17.192 60.822C17.2042 60.832 17.1934 60.8515 17.1784 60.8464C17.1693 60.8433 17.1597 60.8501 17.1597 60.8598V71.5042C17.1597 74.4834 20.2999 76.4171 22.9603 75.076L34.9717 69.0212C35.6351 68.6867 36.3783 68.5494 37.1202 68.5894C37.7425 68.623 38.3691 68.64 38.9997 68.64Z" fill="#2034E9" />
<path fill-rule="evenodd" clip-rule="evenodd" d="M50.3007 24.3464C51.3598 25.1585 51.562 26.6745 50.7526 27.7357L38.7423 43.4829C38.3188 44.0382 37.6769 44.3832 36.9812 44.4295C36.2856 44.4758 35.6039 44.2189 35.1109 43.7246L27.4879 36.0815C26.5452 35.1363 26.5452 33.6064 27.4879 32.6612C28.4342 31.7124 29.971 31.7124 30.9172 32.6612L36.5779 38.3368L46.9028 24.7994C47.7151 23.7344 49.2378 23.5314 50.3007 24.3464Z" fill="white" />
</symbol><symbol viewBox="0 0 20 21" fill="none" id="icon-tel">
<path d="M15 10.5L20 5.5L15 0.5V3.5H11V7.5H15V10.5ZM17 15C15.755 15 14.555 14.8 13.43 14.43C13.085 14.32 12.69 14.4 12.415 14.675L10.215 16.88C7.38 15.44 5.07 13.125 3.625 10.295L5.825 8.09C6.1 7.815 6.18 7.42 6.07 7.075C5.7 5.945 5.5 4.745 5.5 3.5C5.5 2.945 5.055 2.5 4.5 2.5H1C0.445 2.5 0 2.945 0 3.5C0 12.89 7.61 20.5 17 20.5C17.555 20.5 18 20.055 18 19.5V16C18 15.445 17.555 15 17 15Z" fill="#2034E9" />
</symbol><symbol viewBox="0 0 21 20" fill="none" id="icon-tg">
<path fill-rule="evenodd" clip-rule="evenodd" d="M19.1609 0.0709075C19.3701 -0.0382596 19.6228 -0.0199262 19.8152 0.115908C20.0076 0.252575 20.1063 0.484243 20.072 0.717577L17.7713 16.1343C17.7437 16.3168 17.6358 16.4793 17.4768 16.576C17.3773 16.636 17.2643 16.6668 17.1506 16.6668C17.082 16.6668 17.0134 16.6551 16.9481 16.6335L8.17791 13.6476L16.8017 3.29842L5.6572 12.7901L0.424199 11.0085C0.187438 10.9276 0.0209525 10.7143 0.00171043 10.4643C-0.016695 10.2151 0.114653 9.97845 0.337192 9.86261L19.1609 0.0709075ZM7.32029 18.5418V14.6768L10.7228 15.8352L8.45306 18.9118C8.33258 19.0752 8.14351 19.1668 7.94774 19.1668C7.88249 19.1668 7.8164 19.1568 7.75198 19.136C7.4943 19.051 7.32029 18.8118 7.32029 18.5418Z" fill="white" />
</symbol><symbol viewBox="0 0 17 18" fill="none" id="icon-user">
<path fill-rule="evenodd" clip-rule="evenodd" d="M13.3573 5C13.3573 7.76147 11.119 10 8.35726 10C5.59554 10 3.35726 7.76147 3.35726 5C3.35726 2.23853 5.59554 0 8.35726 0C11.119 0 13.3573 2.23853 13.3573 5ZM16.617 15.218C16.8914 15.7119 16.5614 16.29 16.0096 16.405C10.9618 17.4568 5.75277 17.4568 0.705894 16.405C0.154136 16.29 -0.175942 15.7119 0.0984722 15.218C0.704917 14.1311 1.65902 13.175 2.87875 12.447C4.45101 11.5081 6.37679 11 8.35726 11C10.3377 11 12.2645 11.509 13.8368 12.447C15.0565 13.175 16.0106 14.1311 16.617 15.218Z" fill="#2034E9" />
</symbol><symbol viewBox="0 0 22 14" fill="none" id="icon-vk">
<path d="M16.9942 5.82652C16.553 6.19531 16.5997 6.92783 17.0736 7.25351V7.25351C17.7161 7.6953 18.2983 8.20561 18.8257 8.77824C19.5288 9.5417 20.1058 10.3909 20.5593 11.3234C20.8461 11.9131 21.0731 12.5251 21.2528 13.1551C21.2666 13.2035 21.2619 13.2218 21.2039 13.2218C19.9905 13.2202 18.7769 13.2201 17.5634 13.2222C17.499 13.2224 17.4878 13.1889 17.4726 13.1423C17.2065 12.33 16.8252 11.5766 16.3033 10.8972C15.5112 9.86599 14.514 9.11773 13.2617 8.72523C12.9105 8.61517 12.551 8.54525 12.1861 8.5003C12.1429 8.49503 12.1298 8.50852 12.1335 8.54882C12.1354 8.56928 12.1338 8.59005 12.1338 8.61083C12.1338 10.1143 12.1338 11.618 12.1338 13.1215C12.1338 13.2205 12.1338 13.2202 12.033 13.2205C11.5482 13.2227 11.0635 13.2145 10.5801 13.1762C8.74681 13.0306 7.0179 12.5489 5.44412 11.5766C4.70289 11.1187 4.0351 10.5702 3.4395 9.93482C2.28254 8.70089 1.48453 7.25754 0.935296 5.66986C0.639209 4.81387 0.425585 3.9371 0.277464 3.04389C0.177109 2.43794 0.105382 1.82919 0.0594836 1.21688C0.0314776 0.843442 0.0190304 0.469389 0.000515313 0.0954906C-0.00306324 0.0235632 0.010473 -0.000154262 0.089668 7.54117e-07C1.24616 0.00294606 2.40266 0.00248101 3.559 0.000775834C3.61937 0.000620818 3.64162 0.00945673 3.64286 0.0782838C3.65251 0.615259 3.68783 1.15068 3.74726 1.68471C3.85431 2.64736 4.04428 3.59188 4.35515 4.51066C4.62556 5.30992 4.98171 6.06779 5.46154 6.7649C6.02011 7.5764 6.70346 8.25662 7.57398 8.73654C7.88687 8.90908 8.21532 9.04518 8.56119 9.13897C8.62981 9.15757 8.6449 9.14455 8.64459 9.07634C8.64257 8.52092 8.6435 7.96549 8.6435 7.41007C8.6435 4.97648 8.6435 2.54288 8.64365 0.109287C8.64365 -0.017361 8.63136 0.00263603 8.75054 0.00248101C9.84745 0.00186095 10.9442 0.00294606 12.0411 0.000465802C12.1147 0.000310786 12.1355 0.0161224 12.1354 0.0925453C12.1329 1.77431 12.1335 3.45624 12.1335 5.138C12.1335 5.23582 12.1332 5.23303 12.2328 5.21799C12.9791 5.10437 13.6233 4.76612 14.2117 4.31301C15.1162 3.61668 15.8023 2.73867 16.3413 1.74114C16.6311 1.20463 16.8613 0.643782 17.0254 0.0565816C17.0368 0.0159674 17.0537 0.00093085 17.099 0.00108587C18.2062 0.00263603 19.3133 0.00232599 20.4207 0.00248101V0.00248101C20.4548 0.00248101 20.4782 0.0378519 20.4711 0.0712269C19.9718 2.44276 18.7797 4.33426 16.9942 5.82652Z" fill="#FEFEFF" />
</symbol></defs><use id="icon-arrow-usage" xlink:href="#icon-arrow" class="sprite-symbol-usage" /><use id="icon-arrow-bold-usage" xlink:href="#icon-arrow-bold" class="sprite-symbol-usage" /><use id="icon-arrow-empty-usage" xlink:href="#icon-arrow-empty" class="sprite-symbol-usage" /><use id="icon-arrow-min-usage" xlink:href="#icon-arrow-min" class="sprite-symbol-usage" /><use id="icon-arrow-small-usage" xlink:href="#icon-arrow-small" class="sprite-symbol-usage" /><use id="icon-bulb-usage" xlink:href="#icon-bulb" class="sprite-symbol-usage" /><use id="icon-chevrone-usage" xlink:href="#icon-chevrone" class="sprite-symbol-usage" /><use id="icon-close-usage" xlink:href="#icon-close" class="sprite-symbol-usage" /><use id="icon-connection-usage" xlink:href="#icon-connection" class="sprite-symbol-usage" /><use id="icon-doc-usage" xlink:href="#icon-doc" class="sprite-symbol-usage" /><use id="icon-external-usage" xlink:href="#icon-external" class="sprite-symbol-usage" /><use id="icon-fax-usage" xlink:href="#icon-fax" class="sprite-symbol-usage" /><use id="icon-filter-usage" xlink:href="#icon-filter" class="sprite-symbol-usage" /><use id="icon-hint-usage" xlink:href="#icon-hint" class="sprite-symbol-usage" /><use id="icon-lightning-usage" xlink:href="#icon-lightning" class="sprite-symbol-usage" /><use id="icon-list-usage" xlink:href="#icon-list" class="sprite-symbol-usage" /><use id="icon-location-usage" xlink:href="#icon-location" class="sprite-symbol-usage" /><use id="icon-lorry-usage" xlink:href="#icon-lorry" class="sprite-symbol-usage" /><use id="icon-mail-usage" xlink:href="#icon-mail" class="sprite-symbol-usage" /><use id="icon-menu-service-usage" xlink:href="#icon-menu-service" class="sprite-symbol-usage" /><use id="icon-pdf-usage" xlink:href="#icon-pdf" class="sprite-symbol-usage" /><use id="icon-pillar-usage" xlink:href="#icon-pillar" class="sprite-symbol-usage" /><use id="icon-refresh-usage" xlink:href="#icon-refresh" class="sprite-symbol-usage" /><use id="icon-search-usage" xlink:href="#icon-search" class="sprite-symbol-usage" /><use id="icon-success-usage" xlink:href="#icon-success" class="sprite-symbol-usage" /><use id="icon-tel-usage" xlink:href="#icon-tel" class="sprite-symbol-usage" /><use id="icon-tg-usage" xlink:href="#icon-tg" class="sprite-symbol-usage" /><use id="icon-user-usage" xlink:href="#icon-user" class="sprite-symbol-usage" /><use id="icon-vk-usage" xlink:href="#icon-vk" class="sprite-symbol-usage" /></svg>